<?xml version='1.0' encoding='utf-8'?>
<svg xmlns="http://www.w3.org/2000/svg" width="66.438mm" height="89.713mm" version="1.1" viewBox="0 0 66.438 89.713"> <defs> <linearGradient id="b" class="svga-on-canvas-glasses-gradient-single-0-null" x1="81.438" x2="81.438" y1="89.288" y2="108.33" gradientUnits="userSpaceOnUse"> <stop stop-color="#ffba38" offset=".0041667"/> <stop stop-color="#f5b232" stop-opacity=".8314" offset=".1721"/> <stop stop-color="#d99d24" stop-opacity=".541" offset=".4612"/> <stop stop-color="#ac7b0c" stop-opacity=".1664" offset=".8343"/> <stop stop-color="#966a00" stop-opacity="0" offset="1"/> </linearGradient> <linearGradient id="a" class="svga-on-canvas-glasses-gradient-single-2-null" x1="-18.56" x2="-18.56" y1="89.288" y2="108.33" gradientTransform="matrix(-1,0,0,1,100,0)" gradientUnits="userSpaceOnUse"> <stop stop-color="#ffba38" offset=".0041667"/> <stop stop-color="#f5b232" stop-opacity=".8314" offset=".1721"/> <stop stop-color="#d99d24" stop-opacity=".541" offset=".4612"/> <stop stop-color="#ac7b0c" stop-opacity=".1664" offset=".8343"/> <stop stop-color="#966a00" stop-opacity="0" offset="1"/> </linearGradient> </defs> <g transform="translate(-64.822 -49.895)"> <g transform="translate(35.373 -1.7798)"> <g transform="matrix(.45289 0 0 .45289 17.448 41.481)" fill="#e9c6af" stroke-width="1.7526"> <path d="m168.5 219.5-1.7-21.5s0.7-9-8.8-15.3-23.4-10.1-29.5-14.2-9.2-4.5-9-16.9 0.9-40.3 0.9-40.3h-40.8s0.7 27.9 0.9 40.3-2.9 12.8-9 16.9-20 7.9-29.5 14.2-8.8 15.3-8.8 15.3l-1.6 21.5z" fill="#e9c6af" stroke-width="2.2355"/> </g> <g transform="matrix(.45289 0 0 .45289 17.448 41.481)"> <path d="m80.4 155.4c5.9 5.8 12.6 9.3 19.6 9.3s13.7-3.5 19.6-9.3c-0.1-1.1-0.1-2.4-0.1-3.8 0.2-12.4 0.9-40.3 0.9-40.3h-40.8s0.7 27.9 0.9 40.3c0 1.4 0 2.7-0.1 3.8z" fill="#d4958a" opacity=".65" stroke-width="2.2355"/> <path d="m73.8 175.9c5.1 2.9 11.8 5.2 17.6 5.7 0.4 0 0.4-0.6 0.1-0.7-2.8-1.1-5.9-1.7-8.8-2.6s-5.8-2-8.8-2.7c-0.1-0.1-0.3 0.2-0.1 0.3zm35.2 6.2c5.3-0.6 11.3-3 15.9-5.8 0.3-0.2 0.1-0.6-0.2-0.5-2.6 0.9-5.2 2-7.8 2.9s-5.4 1.5-8 2.5c-0.5 0.1-0.5 0.9 0.1 0.9z" fill="#d4958a" stroke-width="2.2355"/> <path d="m168.4 219.4-2.1-21.4c0-2.2-0.5-4.5-1.5-6.6-0.9-2.1-2.3-3.9-3.9-5.5s-3.5-2.8-5.5-4-4.1-2.2-6.2-3.1c-4.2-1.9-8.6-3.6-12.9-5.4-2.2-0.9-4.3-1.9-6.4-3-1.1-0.6-2.1-1.2-3-1.9-1-0.6-2-1.2-3-1.9s-2-1.5-2.8-2.6c-0.8-1-1.3-2.2-1.7-3.4-0.7-2.4-0.8-4.8-0.8-7.2 0-4.7 0.2-9.4 0.3-14.1 0.2-9.4 0.6-18.7 0.9-28l0.6 0.6-20.4-0.2-20.4-0.1 0.3-0.3 0.7 28c0.1 4.7 0.3 9.3 0.4 14 0 2.4-0.1 4.7-0.8 7.1-0.3 1.2-0.9 2.3-1.6 3.3-0.8 1-1.7 1.8-2.7 2.5s-2 1.3-2.9 2c-0.9 0.6-1.9 1.3-3 1.9-2.1 1.2-4.2 2.1-6.4 3.1-4.3 1.9-8.6 3.6-12.8 5.6-2.1 1-4.2 2.1-6.1 3.2-2 1.2-3.8 2.4-5.4 4s-2.9 3.4-3.8 5.4c-0.4 1-0.8 2.1-1 3.1-0.2 1.1-0.4 2.2-0.3 3.2v0.2l-1.5 21.5-1-1.1 34 0.1c11.3 0 22.7 0.1 34.1 0.2l34.2 0.3zm0.2 0.2-34 0.4-34.2 0.3c-11.4 0.1-22.9 0.2-34.4 0.2l-34.4 0.1h-1.1l0.1-1.1 1.7-21.5v0.1c-0.1-5.1 2.2-9.8 5.7-13.3 1.7-1.7 3.8-3.1 5.8-4.3s4.2-2.2 6.3-3.2c4.3-2 8.7-3.7 13-5.4 2.1-0.9 4.3-1.8 6.3-2.9 1-0.5 1.9-1.1 3-1.8 1-0.6 2-1.2 2.9-1.9 0.9-0.6 1.8-1.4 2.4-2.2 0.7-0.9 1.2-1.9 1.5-2.9 0.6-2.1 0.8-4.5 0.8-6.8 0-4.6-0.1-9.3-0.2-14l-0.6-28v-0.3h0.3l20.4-0.1 20.4-0.2h0.6v0.6c-0.1 9.3-0.2 18.7-0.4 28-0.1 4.7-0.2 9.4-0.2 14 0.1 2.3 0.2 4.6 0.8 6.7 0.3 1.1 0.8 2 1.4 2.9 0.6 0.8 1.4 1.6 2.4 2.2 0.9 0.6 1.9 1.3 2.9 1.9 1 0.7 1.9 1.3 2.9 1.8 2 1.1 4.1 2.1 6.3 3 4.3 1.8 8.6 3.6 12.9 5.6 2.1 1 4.2 2.1 6.2 3.3s4 2.6 5.7 4.3c3.4 3.4 5.6 8.1 5.4 13v-0.1zm-112.8-0.4 1.9-13.8 0.1 13.8zm88.6 0-1.9-13.8-0.1 13.8z" fill="#c5796d" stroke-width="2.2355"/> <path d="m27.5 220c-1.4-8.2 1.3-23.2 1.8-26s3.9-6.8 3.9-6.8 1.2-2.6 5.1-6c4-3.5 15.4-6.4 15.9-7.6s2.7-2.3 2.7-2.3c-1-4.2 2.1-7.8 3.6-11.4s4.9-5.6 4.9-5.6c3.7-6.2 12.5-7 12.5-7s0.6 5.3 0.6 7.8-0.1 6.1-0.8 7.7-0.8 2.3-0.8 2.3 0.2 3.2 5.8 7.4 7.2 6.9 12.5 9.2c3.7 1.7 6.7 5.2 6.7 5.2s0-2.6 3.1-5.2c4.5-3.8 6.9-5 12.5-9.2s5.8-7.4 5.8-7.4-0.1-1-0.5-2.7c-0.4-2-0.3-4.4-0.3-6.9s0.8-8.4 0.8-8.4 7.7 1 11.4 7.2c0 0 3.3 2.1 4.9 5.6s4.6 7.2 3.6 11.4c0 0 2.2 1.2 2.7 2.3 0.5 1.2 11.9 4.1 15.9 7.6s5.1 6 5.1 6 3.3 4 3.9 6.8c0.5 2.8 3.2 17.8 1.8 26" fill="#1d3f45" stroke-width="2.2355"/> <path d="m173.2 211.5c-0.1-2.9-0.2-5.7-0.6-8.5s-0.7-5.6-1.1-8.5c-0.1-0.7-0.3-1.5-0.6-2.2s-0.6-1.4-1-2c-0.7-1.2-1.5-2.4-2.4-3.5-0.6-1.2-1.3-2.1-2.1-3.1s-1.7-1.9-2.6-2.7c-0.9-0.9-2-1.6-3.1-2.2s-2.2-1.1-3.4-1.6c-2.3-1-4.6-1.9-6.8-2.8-0.6-0.2-1.1-0.4-1.7-0.7-0.3-0.1-0.5-0.2-0.8-0.4-0.1-0.1-0.2-0.1-0.3-0.2 0 0-0.1 0-0.1-0.1l-0.1-0.1c-0.1-0.1-0.1-0.2-0.2-0.3-0.1-0.2-0.2-0.3-0.4-0.5-0.3-0.3-0.5-0.5-0.8-0.7-0.3-0.3-0.7-0.5-1-0.7 0.2-1.6 0-3.3-0.6-4.7-0.6-1.7-1.4-3.1-2.2-4.6-0.4-0.7-0.7-1.4-1.1-2.2s-0.8-1.6-1.4-2.3c-1-1.4-2.2-2.5-3.6-3.5-1.3-2.1-3.1-3.8-5.1-5-1.1-0.6-2.2-1.1-3.3-1.6-1.2-0.4-2.3-0.7-3.6-0.9-0.5-0.1-2.9-0.2-2.9-0.2-1.5 11 1.8 18.5 1.9 19.2 0 0.1-0.1 0.4-0.2 0.6v0.1l-0.3 0.6v0.1c0 0.1 0 0.1-0.1 0.2-0.3 0.5-0.6 0.9-0.9 1.4-0.7 1-1.6 1.9-2.6 2.7-0.1 0.1-0.3 0.2-0.4 0.3-0.2 0.2-0.5 0.4-0.7 0.6-0.7 0.5-1.5 1.1-2.2 1.6-0.9 0.7-1.8 1.4-2.8 2.2 0 0-0.1 0-0.1 0.1-2.1 1.5-4.3 3-6.3 4.7-1.7 1.4-3.7 3.1-4.3 5.6-1.8-1.8-3.8-3.3-6.1-4.4-2.6-1.1-4.9-2.6-7-4.5-1.1-0.9-2.1-1.9-3.2-2.8s-2.2-1.8-3.3-2.6c-1.1-0.9-2.1-1.8-3-2.9-0.3-0.4-0.6-0.8-0.8-1.2s-0.2-0.8-0.3-1.2-0.2-0.9-0.2-1.2v-0.1l-0.1-0.2c-0.1-0.1-0.1-0.3-0.2-0.5 0.1-0.4 0.3-0.8 0.5-1.1 2.3-1.9 2.5-9.2 2.4-10.8-0.1-1.5-0.2-5.8-0.2-5.8-1.3 0.1-4.7 0.6-5.9 0.9-1.2 0.4-2.4 0.8-3.5 1.4-2.2 1.1-4.3 2.7-5.7 4.9-1.4 0.9-2.7 2.1-3.7 3.4-0.5 0.7-1 1.4-1.4 2.3-0.3 0.8-0.7 1.4-1.1 2.2-0.8 1.4-1.6 2.9-2.2 4.6-0.5 1.4-0.8 3.1-0.6 4.7-0.4 0.2-0.7 0.5-1.1 0.8-0.3 0.2-0.5 0.4-0.8 0.7-0.1 0.1-0.2 0.3-0.4 0.4-0.1 0.1-0.1 0.2-0.2 0.3v0.1l-0.1 0.1c-0.1 0.1-0.2 0.1-0.3 0.2-0.2 0.1-0.5 0.2-0.8 0.4-0.5 0.2-1.1 0.5-1.7 0.7-2.3 0.9-4.6 1.7-6.8 2.7-1.1 0.5-2.3 1-3.4 1.6s-2.2 1.4-3.1 2.2-1.8 1.7-2.6 2.7c-0.8 0.9-1.5 1.9-2.1 3.1-0.9 1.1-1.7 2.3-2.4 3.5-0.4 0.6-0.7 1.3-1 2s-0.5 1.5-0.6 2.2c-0.5 2.8-0.9 5.6-1.2 8.5s-0.5 5.7-0.6 8.5c0 2.9 0 5.7 0.6 8.5h0.2c-0.4-2.8-0.3-5.6-0.1-8.5 0.2-2.8 0.5-5.6 0.9-8.4s0.9-5.6 1.4-8.4c0.1-0.7 0.3-1.3 0.5-1.9 0.3-0.6 0.6-1.2 1-1.8 0.7-1.2 1.5-2.3 2.4-3.4l0.1-0.1v-0.1c0.5-0.9 1.2-1.9 2-2.8s1.6-1.7 2.5-2.5c1.7-1.6 3.9-2.6 6.1-3.5s4.5-1.8 6.8-2.6c0.6-0.2 1.2-0.4 1.7-0.7 0.1 0 0.2-0.1 0.2-0.1-0.4 0.8-0.8 1.6-1.1 2.4-0.4 1.3-0.7 2.7-0.3 4.2 0.3 0.8 0.7 1.3 1.2 1.8s1 1 1.5 1.4c1.1 0.9 2.2 1.6 3.3 2.3 2.3 1.4 4.7 2.6 7.1 3.7 1.2 0.5 2.4 1.1 3.7 1.5s2.7 0.7 4 0.9c2.7 0.4 5.3 0.5 8 0.6s5.3 0.1 7.9 0.1c1.3 0 2.6 0.1 3.9 0.2l3.9 0.4c0.6 0.1 1.2 0.1 1.7 0.2-2.1 2.1-4.3 5.2-5.4 9.6-1.4 6 0.7 7.6 1.7 8 0.3 0.1 0.7 0.2 1.1 0.2 1.4 0 2.9-1 3.8-2.6 0.7-1.2 1.4-3.5 2-6.1 0 7 0.7 12.8 0.8 13.2 0.1 0.5 0.5 0.9 1 0.9h0.1c0.6-0.1 0.9-0.6 0.9-1.1 0-0.1-1.1-9.2-0.6-18.3 1.5 6.3 3.9 15.4 6.7 18.8 0.3 0.4 1 0.5 1.4 0.1s0.5-1 0.1-1.4c-2.9-3.5-5.6-14.9-6.9-20.7 0.1 0 0.1-0.1 0.2-0.1 2.2 3.6 3.5 8.3 4.4 11.7 0.5 1.8 0.8 3.2 1.2 4.1 0.7 1.6 2.4 2.6 4.1 2.6 0.5 0 1.1-0.1 1.5-0.3 1-0.4 4-2.3 1.2-9.2-2-4.9-5.4-8.3-8.4-10.5 0.3-0.1 0.7-0.3 1.1-0.4 1.9-0.6 3.9-1.3 5.8-1.4 0.4 0 1.1-0.1 1.6-0.2l1.5-0.3c1-0.2 2-0.5 3-0.8 2-0.6 3.9-1.3 5.8-2 3.8-1.5 7.6-3.2 11.2-5.2 1.8-1 3.6-2.3 4.9-4 0.6-0.9 1.2-1.8 1.5-2.8 0.2-0.6 0.4-1.2 0.4-1.8 0.1 0.1 0.2 0.1 0.3 0.2 0.3 0.1 0.6 0.3 0.9 0.4 0.6 0.2 1.2 0.5 1.7 0.7 2.3 0.9 4.6 1.7 6.8 2.6s4.4 1.9 6.1 3.5c0.9 0.8 1.7 1.6 2.5 2.5s1.5 1.9 2 2.8v0.1l0.1 0.1c0.9 1 1.7 2.2 2.4 3.3 0.4 0.6 0.7 1.2 0.9 1.8 0.3 0.6 0.4 1.2 0.6 1.9 0.5 2.8 1 5.6 1.4 8.4s0.7 5.6 0.9 8.4 0.2 5.7-0.1 8.5h0.2c1.1-2.9 1.2-5.8 1.2-8.6zm-49.2-48c-0.1-0.3-0.1-0.7-0.2-1-0.2-0.8-0.2-1.4-0.3-2.1-0.1-1.4-0.1-2.9-0.1-4.4s0.1-2.9 0.3-4.4c0-0.2 0.1-0.5 0.1-0.7 0.7 1 1.2 2.1 1.5 3.2 0.3 1.4 0.4 2.8 0.3 4.2s-0.4 2.8-0.9 4.1c-0.2 0.4-0.5 0.8-0.7 1.1zm-46.2-2.9c-0.1 0.7-0.2 1.4-0.6 2.1-0.1 0.1-0.1 0.3-0.2 0.4-0.2-0.6-0.3-1.2-0.4-1.7-0.2-1.1-0.4-2.2-0.4-3.3-0.1-1.1 0-2.1 0.4-3.1 0.3-0.8 0.7-1.6 1.4-2.4 0.1 1.2 0.2 2.4 0.1 3.6-0.1 1.4-0.1 2.9-0.3 4.4zm19.7 48.6c-0.7 1.2-1.8 1.7-2.4 1.5-0.8-0.3-1.3-2.2-0.5-5.7 1.2-4.8 4-8 6.1-9.8h0.3c-0.8 4.8-2.3 12-3.5 14zm4.6-17.4c-0.2 0.1-1.5 0.8-3.1 2.3-0.8-0.1-1.7-0.3-2.5-0.4-2.6-0.4-5.2-1-7.9-1.1-5.3-0.4-10.6-0.4-15.6-1.2-1.3-0.2-2.5-0.5-3.7-0.8-1.2-0.4-2.4-0.9-3.6-1.4-2.4-1-4.8-2.1-7.1-3.3-1.2-0.6-2.2-1.3-3.3-2-1-0.7-2.1-1.5-2.6-2.5-0.4-1.1-0.3-2.4 0-3.6 0.2-1 0.5-1.9 1-2.9 0 0 0.1-0.1 0.2-0.1 0.2-0.1 0.3-0.2 0.5-0.3s0.3-0.2 0.6-0.5l0.2-0.3s0-0.1 0.1-0.1c0-0.1 0.1-0.2 0.2-0.3 0.2-0.2 0.4-0.4 0.6-0.5s0.5-0.3 0.7-0.5v1.3c0.1 0.8 0.4 1.6 0.7 2.4 0.7 1.5 1.7 2.9 2.7 4.2 1.1 1.2 2.3 2.4 3.6 3.4 0.7 0.5 1.3 1 2 1.5 0.7 0.4 1.4 0.9 2.1 1.3-1.2-1.2-2.4-2.3-3.5-3.4-1.2-1.1-2.3-2.3-3.3-3.5s-2-2.5-2.8-3.9c-0.4-0.7-0.7-1.4-1-2.2-0.1-0.4-0.2-0.9-0.3-1.3 0.2-0.1 0.3-0.2 0.4-0.3 0.3-0.2 0.5-0.6 0.4-1-0.3-1.4-0.2-2.9 0.3-4.4s1.3-2.9 2.1-4.4c0.4-0.7 0.8-1.5 1.1-2.3 0.3-0.7 0.7-1.4 1.1-2s0.9-1.1 1.4-1.7c-0.7 1.5-1 3.1-1 4.8 0.1 2.6 1.3 5 2.6 7.1 1.3 2.2 2.7 4.3 4.4 6.2s3.8 3.5 6 4.8 4.6 2.2 6.9 3.1c2.4 0.9 4.8 1.7 7.2 2.4 2.4 0.8 4.8 1.5 7 2.7 2 1 3.8 2.3 5.4 3.9 0 0.5-0.1 0.6-0.2 0.8zm13.5 13.3c1.4 3.4 1.3 6-0.2 6.6-1.1 0.4-2.6-0.2-3.1-1.2-0.3-0.8-0.7-2.2-1.2-3.9-0.9-3.4-2.1-8-4.3-11.8 2.9 1.8 6.7 5.2 8.8 10.3zm27.5-26.3c-1.3 1.4-3 2.4-4.8 3.3-3.6 1.8-7.4 3.3-11.2 4.8l-5.7 2.3c-0.9 0.4-1.9 0.7-2.8 1.1-0.5 0.2-0.9 0.3-1.4 0.4s-0.9 0.2-1.4 0.3c-2.1 0.4-4 1.1-5.9 1.8l-1.5 0.6c-2.3-1.6-4.3-2.3-4.8-2.3-0.2 0-0.3 0.1-0.5 0.1h-0.2c-0.2 0-0.4 0.1-0.6 0.2-1.5-1.6-3.3-3.1-5.2-4.2-2.2-1.3-4.6-2.1-7-3-4.7-1.7-9.5-3.2-13.8-5.7-2.1-1.2-4.1-2.7-5.8-4.5s-3.1-3.9-4.4-6c-0.7-1.1-1.3-2.1-1.8-3.2s-0.8-2.3-1-3.5c-0.2-1.7 0.1-3.5 0.8-5.1 0.5-0.4 1-0.9 1.5-1.2h0.1l0.2-0.2c1.2-2 3-3.6 5.1-4.7 1.1-0.6 2.2-1 3.3-1.4 1-0.3 2-0.6 3-0.7 0.2 1.3 0.3 2.6 0.4 4v0.6c-1 0.4-1.9 1.2-2.5 2.1-0.7 1.1-1.1 2.4-1.1 3.7-0.1 1.3 0.1 2.5 0.3 3.7 0.3 1.2 0.7 2.4 1.3 3.5 0.1 0.4 0.2 0.8 0.4 1.2s0.5 0.9 0.7 1.3c0.3 0.4 0.6 0.8 1 1.1l0.9 0.6c0.8 0.9 1.6 1.7 2.4 2.4 1.1 0.9 2.2 1.7 3.3 2.6s2.1 1.8 3.2 2.8c1.1 0.9 2.2 1.9 3.3 2.7 1.2 0.8 2.5 1.5 3.7 2.1 2.4 1.2 4.6 3.1 6.4 5.1 0.1 0.1 0.2 0.2 0.4 0.2 0.3 0 0.6-0.2 0.6-0.5 0.1-1.1 0.7-2.3 1.4-3.2 0.7-1 1.8-1.7 2.8-2.5 2-1.6 4.2-3 6.4-4.5 1.1-0.7 2.2-1.5 3.2-2.3 0.3-0.2 0.7-0.5 1-0.7l1-0.6c0.8-0.5 1.6-1 2.3-1.7 0.7-0.6 1.4-1.3 2-2.1 0.3-0.4 0.6-0.8 0.8-1.3 0.1-0.2 0.2-0.5 0.3-0.8 0-0.1 0.1-0.3 0.1-0.4l0.6-0.6c0.3-0.3 0.6-0.6 0.8-1 0.5-0.7 0.9-1.4 1.2-2.2 0.6-1.5 0.8-3.1 0.7-4.7 0-1.6-0.3-3.1-0.9-4.6-0.5-1.2-1.3-2.3-2.3-3.1l0.3-2.4 2.1 0.6c1 0.4 2 0.9 3 1.4 1.9 1.1 3.5 2.6 4.6 4.4l0.3 0.3c0.2 0.1 0.4 0.3 0.6 0.5 0 1.6-0.2 3.1-0.7 4.6-0.6 1.9-1.6 3.7-2.8 5.2-2.5 3.1-5.7 5.6-9.2 7.6-0.9 0.5-1.8 0.9-2.7 1.3s-1.9 0.9-2.8 1.4c-1.8 1-3.6 2-5.2 3.2s-3.3 2.4-4.8 3.8c-0.8 0.7-1.5 1.4-2.1 2.2s-1.3 1.6-1.5 2.6c0.3-1 1.1-1.7 1.7-2.5 0.7-0.7 1.5-1.4 2.3-2 1.6-1.3 3.2-2.4 4.9-3.5s3.4-2.1 5.2-3c0.9-0.5 1.8-0.9 2.7-1.3s1.9-0.8 2.8-1.3c1.8-1 3.5-2.2 5.1-3.5s3-2.8 4.3-4.4c2.2-2.9 3.4-6.6 3.1-10.2 0.9 0.7 1.8 1.6 2.5 2.6 0.4 0.6 0.9 1.3 1.1 1.9 0.3 0.8 0.7 1.6 1.1 2.3 0.8 1.5 1.6 2.9 2.1 4.3s0.7 2.9 0.4 4.3c-0.1 0.3 0 0.6 0.2 0.9-1.1 0.9-2.2 1.7-3.4 2.4-1.4 0.9-3 1.7-4.6 2.3s-3.2 1.1-4.9 1.6l-4.9 1.4c-1.7 0.5-3.3 1-4.9 1.6-0.8 0.3-1.6 0.7-2.4 1.2-0.4 0.2-0.8 0.5-1.1 0.8s-0.6 0.6-0.9 0.8c-2.7 2.1-5.8 3.6-8.4 5.9 0.3-0.3 0.7-0.5 1.1-0.7l1.1-0.6 2.3-1.2c1.5-0.9 3-1.7 4.4-2.7 0.4-0.2 0.7-0.5 1.1-0.8 0.3-0.3 0.6-0.5 1-0.7 0.7-0.4 1.5-0.7 2.3-1 1.6-0.6 3.2-1.1 4.9-1.6l4.9-1.5c1.6-0.5 3.3-1 4.9-1.8 2.9-1.3 5.5-3.1 7.7-5.3l0.2 0.2c0.5 0.2 1 0.6 1.4 0.9 0.2 0.2 0.4 0.3 0.6 0.5l0.3 0.3 0.2 0.3c0.2 0.3 0.4 0.4 0.5 0.5-0.3 1.2-1.2 2.7-2.3 3.8zm-101.1 25c-0.7-2.5-1.7-5-2.9-7.3s-2.5-4.6-4.1-6.6c0.9 2.5 1.8 4.9 2.6 7.3 0.9 2.4 1.7 4.8 2.4 7.2 0.3 1.2 0.6 2.4 0.9 3.7l0.8 3.7c0.5 2.5 1.1 5 1.7 7.5 0.2-2.6 0.1-5.2-0.2-7.8-0.1-2.6-0.5-5.1-1.2-7.7zm117.5-7.6c-0.7 1.1-1.2 2.3-1.7 3.5s-0.8 2.4-1.1 3.7c-0.5 2.5-0.7 5-0.8 7.5 0 2.5 0.1 5 0.5 7.5 0.4-2.5 0.7-4.9 1-7.4 0.4-2.4 0.7-4.9 1.2-7.2 0.5-2.4 1.1-4.6 2.2-6.8 1-2.1 2.4-4.2 4.1-6-2.2 1.1-4 3.1-5.4 5.2z" fill="#082226" stroke-width="2.2355"/> <path d="m107.5 181.3c6.7-4 15.6-7.9 20-14.8 3.2-5 3.7-12.1-1-16.2-0.3-0.2-0.8 0.1-0.5 0.4 10.5 14.7-10.3 22.7-18.8 30.1-0.3 0.2 0 0.6 0.3 0.5zm30.2-23.2c-0.1-0.5-1-0.5-1 0-1.4 8.9-6.9 13.3-14.7 17.2-5.8 2.8-11.3 5.4-15.1 10.8-0.3 0.5 0.4 1.1 0.8 0.6 6.5-6.6 15.7-8.5 22.9-14 4.4-3.3 8.5-8.8 7.1-14.6zm-57 16.5c-8.2-5.3-14.7-16.3-5.2-24 0.6-0.5-0.2-1.2-0.7-0.9-8 3.7-7.1 14-2.6 20.1 6.7 9 18.7 11.6 27.6 17.5 0.2 0.1 0.3-0.1 0.2-0.2-5.5-5.8-12.8-8.3-19.3-12.5zm15.8 15.5c-6.5-3.6-14.1-4.6-20.6-8.6-7-4.3-11.7-10.2-13.7-18.2-0.1-0.4-0.7-0.3-0.6 0.1 0.4 7.5 5.4 14.1 11.2 18.5 6.3 4.7 15.6 8.9 23.5 9.4 0.5 0 0.8-0.9 0.2-1.2zm47.1-16.2c-6.3 8.2-15.4 10.1-25 12.1-0.4 0.1-0.2 0.6 0.2 0.5 9.3-1.2 20.3-3.6 25.5-12.3 0.2-0.3-0.4-0.6-0.7-0.3zm26 24.6c-0.5-3.4-0.7-8.6-4.2-10.2v-0.4c-2.4-6.2-11.4-11.6-18-11.3-0.6 0-0.7 0.9-0.1 1.1 3.2 1.3 6.4 2.1 9.4 4 2.7 1.8 4.5 4.2 6.7 6.4-8.5 4.9-12.6 16.1-9.5 25.4 0.1 0.4 0.9 0.4 0.8-0.1-1.2-10.3 2-17.9 9.7-24.3 5.9 7 3.7 19.7 4.8 28.2 0.1 0.6 1 0.8 1.1 0.1 0.9-6.2 0.2-12.7-0.7-18.9zm-122.9-20.9c-5.3 0.9-9.7 5.4-11.9 10.1-0.2 0.5 0.4 0.9 0.7 0.4 2.9-4.6 6.9-7.1 11.4-9.9 0.3-0.2 0.1-0.6-0.2-0.6zm-13.7 14.3c-2.4 6.3-3.5 13.7-3.3 20.4 0 0.5 0.8 0.5 0.8 0 0.8-6.9 1.7-13.5 2.9-20.3 0.1-0.3-0.3-0.4-0.4-0.1z" fill="#2c4e54" stroke-width="2.2355"/> <g stroke-width="2.2355"> <path d="m64.2 96.3c-0.2-0.3-3.1-4-5.5-6.3-2.5-2.3-3.2-2.2-4.4-0.8s-2.7 8.5-2.3 11.7 3.3 8.2 4.9 11 3.1 6.3 4.8 6c1.8-0.3 4.2-4.3 5.3-7.3 1.2-3 0.6-10.3-2.8-14.3z" fill="#f3d4cf"/> <path d="m67.9 104.8c0.1 0.8 0.2 1.6 0.2 2.4s0 1.6-0.2 2.4l-0.3 1.2c-0.1 0.4-0.3 0.7-0.4 1-0.3 0.7-0.6 1.3-0.9 2-0.7 1.2-1.4 2.4-2.4 3.4-0.5 0.5-1 1-1.7 1.2-0.3 0.1-0.8 0.1-1.2 0-0.4-0.2-0.7-0.4-1-0.7-1.2-1.2-1.8-2.6-2.5-4s-1.4-2.7-2.1-4.1-1.4-2.8-2-4.2c-0.3-0.7-0.6-1.4-0.9-2.2-0.3-0.7-0.5-1.5-0.6-2.3-0.2-1.6 0-3.2 0.1-4.7 0.2-1.5 0.4-3 0.8-4.5 0.2-0.7 0.4-1.5 0.7-2.2 0.1-0.2 0.2-0.3 0.3-0.5s0.2-0.4 0.3-0.5c0.2-0.3 0.5-0.5 0.8-0.7s0.7-0.3 1.1-0.3c0.4 0.1 0.7 0.2 1.1 0.4 0.6 0.4 1.1 0.9 1.7 1.4 2 2.1 3.7 4.5 5.6 6.8 1.8 2.5 2.9 5.6 3.5 8.7zm-9.6-14.6c-1-0.8-2.2-1.7-2.9-1.2-0.2 0.1-0.4 0.3-0.6 0.6-0.1 0.1-0.2 0.2-0.2 0.3-0.1 0.1-0.1 0.3-0.2 0.4-0.3 0.6-0.5 1.2-0.7 1.9-0.4 1.3-0.8 2.8-1.1 4.2s-0.5 3-0.4 4.4c0.1 0.7 0.3 1.5 0.5 2.2l0.9 2.1c0.6 1.4 1.4 2.7 2.2 4s1.6 2.6 2.3 3.9c0.4 0.7 0.7 1.3 1.1 1.9s0.8 1.2 1.2 1.6 0.8 0.6 1.2 0.4 0.9-0.5 1.3-1c0.8-0.9 1.5-2 2.2-3.2l0.9-1.8c0.1-0.3 0.3-0.6 0.4-0.9l0.2-0.4c0-0.2 0.1-0.3 0.1-0.5 0.3-1.3 0.3-2.8 0.3-4.3-0.1-1.5-0.3-3-0.8-4.5s-1.2-2.9-2.1-4c-1.7-2.2-3.7-4.4-5.8-6.1z" fill="#e4b3ab"/> <path d="m54.1 102.4c-0.2-2.1-0.4-7.4 0.8-9 2-2.7 5.6 6.1 6.5 8.8 0 0.1 0.1 0.2 0.1 0.2 0.1 0.3-0.1 0.7-0.4 0.6-0.4-0.2-0.8-0.6-1.2-0.8-1.1-0.5-1.5 0.4-1.2 1.7 0.4 1.7 1.3 2.7 2.1 4 0.1 0.2 0 0.4-0.2 0.3-1.5-0.9-3.3-4.2-2.9-6.2 0.3-1.8 1.8-1.7 2.9-0.8-0.7-1.6-1.4-3.1-2.3-4.5-0.6-0.9-1.1-1.9-2-2-1.1-0.2-0.9 0.3-1.1 1.7-0.8 4.6-0.3 9.7 2.4 13.7 0.1 0.1 0 0.2-0.1 0.1-2-2.2-3.1-4.7-3.4-7.8z" fill="#d4958a"/> <path d="m135.8 96.3c0.2-0.3 3.1-4 5.5-6.3 2.5-2.3 3.2-2.2 4.4-0.8s2.7 8.5 2.3 11.7-3.3 8.2-4.9 11-3.1 6.3-4.8 6c-1.8-0.3-4.2-4.3-5.3-7.3-1.2-3-0.6-10.3 2.8-14.3z" fill="#f3d4cf"/> <path d="m135.7 96.3c1.8-2.3 3.5-4.7 5.6-6.8 0.5-0.5 1-1 1.7-1.4 0.3-0.2 0.7-0.4 1.1-0.4 0.4-0.1 0.8 0.1 1.1 0.3s0.6 0.5 0.8 0.7c0.1 0.1 0.2 0.3 0.3 0.5s0.2 0.3 0.3 0.5c0.3 0.7 0.5 1.4 0.7 2.2 0.4 1.5 0.6 3 0.8 4.5 0.1 1.5 0.3 3.1 0.1 4.7-0.1 0.8-0.3 1.6-0.6 2.3-0.3 0.8-0.6 1.5-0.9 2.2-0.6 1.4-1.3 2.8-2 4.2s-1.4 2.7-2.1 4.1-1.4 2.8-2.5 4c-0.3 0.3-0.6 0.6-1 0.7s-0.9 0.2-1.2 0c-0.7-0.2-1.2-0.7-1.7-1.2-1-1-1.7-2.2-2.4-3.4-0.3-0.6-0.6-1.3-0.9-2-0.1-0.3-0.3-0.7-0.4-1l-0.3-1.2c-0.1-0.8-0.2-1.6-0.2-2.4s0.1-1.6 0.2-2.4c0.5-3.3 1.6-6.4 3.5-8.7zm0.1 0.1c-0.9 1.1-1.6 2.5-2.1 4s-0.7 3-0.8 4.5 0 3 0.3 4.3c0 0.2 0.1 0.3 0.1 0.5l0.2 0.4c0.1 0.3 0.3 0.6 0.4 0.9l0.9 1.8c0.6 1.2 1.4 2.3 2.2 3.2 0.4 0.4 0.9 0.8 1.3 1s0.8 0 1.2-0.4 0.8-1 1.2-1.6 0.8-1.3 1.1-1.9c0.7-1.3 1.6-2.6 2.3-3.9 0.8-1.3 1.5-2.6 2.2-4l0.9-2.1c0.3-0.7 0.5-1.5 0.5-2.2 0.1-1.5-0.1-3-0.4-4.4s-0.6-2.9-1.1-4.2c-0.2-0.7-0.5-1.3-0.7-1.9-0.1-0.1-0.1-0.3-0.2-0.4s-0.1-0.2-0.2-0.3l-0.6-0.6c-0.7-0.6-1.8 0.4-2.9 1.2-2 1.6-4 3.8-5.8 6.1z" fill="#e4b3ab"/> <path d="m145.9 102.4c0.2-2.1 0.4-7.4-0.8-9-2-2.7-5.6 6.1-6.5 8.8 0 0.1-0.1 0.2-0.1 0.2-0.1 0.3 0.1 0.7 0.4 0.6 0.4-0.2 0.8-0.6 1.2-0.8 1.1-0.5 1.5 0.4 1.2 1.7-0.4 1.7-1.3 2.7-2.1 4-0.1 0.2 0 0.4 0.2 0.3 1.5-0.9 3.3-4.2 2.9-6.2-0.3-1.8-1.8-1.7-2.9-0.8 0.7-1.6 1.4-3.1 2.3-4.5 0.6-0.9 1.1-1.9 2-2 1.1-0.2 0.9 0.3 1.1 1.7 0.8 4.6 0.3 9.7-2.4 13.7-0.1 0.1 0 0.2 0.1 0.1 2-2.2 3.1-4.7 3.4-7.8z" fill="#d4958a"/> <path d="m141 88.4c0 30.3-18.9 65.2-41 65.2s-41-34.9-41-65.2 18.9-47 41-47 41 16.6 41 47z" fill="#f3d4cf"/> <path d="m100 41.3c-22.1 0-41.1 16.7-41.1 47s19 65.5 41.1 65.5 41.1-35.2 41.1-65.5-19-47-41.1-47zm28.2 13.6 0.8 0.8c0.3 0.3 0.5 0.6 0.8 0.9s0.5 0.6 0.8 0.9l0.7 0.9c0.2 0.3 0.5 0.6 0.7 0.9l0.7 1 0.6 1c0.4 0.7 0.9 1.3 1.2 2l0.6 1c0.2 0.3 0.4 0.7 0.5 1l1 2.2c0.2 0.4 0.3 0.7 0.5 1.1l0.4 1.1c2.3 5.9 3.2 12.4 3.3 18.7 0 6.4-0.9 12.8-2.6 18.9-0.8 3.1-1.9 6.1-3.1 9s-2.5 5.8-4 8.6-3.1 5.5-4.8 8.1c-0.9 1.3-1.8 2.6-2.7 3.8s-1.9 2.4-3 3.6c-2 2.3-4.3 4.4-6.7 6.3-2.4 1.8-5 3.3-7.8 4.3-1.4 0.5-2.8 0.9-4.3 1-1.5 0.2-2.9 0.2-4.4 0.1-3-0.2-5.9-1.2-8.6-2.6s-5.3-3.3-7.6-5.4-4.4-4.5-6.3-7.1-3.6-5.3-5-8.1c-1.5-2.8-2.8-5.7-3.9-8.7-0.6-1.5-1.1-3-1.6-4.5s-0.9-3-1.3-4.6c-0.8-3.1-1.4-6.2-1.8-9.3s-0.7-6.3-0.8-9.4c0-1.6 0-3.1 0.1-4.7 0-0.8 0.1-1.6 0.1-2.3l0.2-2.3c0.3-3.1 0.9-6.2 1.7-9.1 0.8-3 1.8-5.9 3.2-8.6 0.2-0.4 0.3-0.7 0.5-1l0.5-1c0.4-0.7 0.8-1.3 1.2-2 0.4-0.6 0.8-1.3 1.3-1.9l0.7-0.9 0.3-0.5 0.4-0.4c1.9-2.4 4.1-4.5 6.5-6.3s5-3.3 7.8-4.5 5.7-2 8.6-2.5c0.7-0.2 1.5-0.2 2.2-0.3 0.4-0.1 0.8-0.1 1.1-0.1l1.1-0.1c0.8 0 1.5-0.1 2.3-0.1h2.3l1.1 0.1c0.4 0 0.8 0.1 1.1 0.1 0.4 0 0.8 0.1 1.1 0.1l1.1 0.2 1.2 0.2 1.1 0.2c0.4 0.1 0.7 0.2 1.1 0.3s0.7 0.2 1.1 0.3c1.4 0.4 2.9 0.9 4.3 1.5s2.8 1.2 4.1 2c2.7 1.5 5.2 3.3 7.4 5.4l0.4 0.4z" fill="#c5796d"/> </g> <path transform="translate(0,3)" d="m84.5 124.5c0.2 0 5.6 6.5 8.5 8 2.9 1.4 9 2 12.5 0.7s9.5-9.1 9.5-9.1-6.4 1.8-9.9 2.2-11.7-0.2-15-0.7-5.6-1.1-5.6-1.1z" stroke-width="2.2355"/> <path transform="translate(0,3)" d="m90 125.6c-3.3-0.5-5.5-1.1-5.5-1.1 0.1 0 1.7 1.9 3.6 3.8 2.2 0.9 5.1 2 7.5 2.4 4.6 0.7 10.4 0.2 15.2-2.1 0.3-0.1 0.6-0.3 0.8-0.4 1.9-2.1 3.4-4 3.4-4s-6.4 1.8-9.9 2.2c-3.6 0.3-11.8-0.3-15.1-0.8z" fill="#fff" stroke-width="2.2355"/> <path transform="translate(0,3)" d="m116.9 123.3c-0.1-0.1-0.1-0.2-0.2-0.3-0.3-0.3-0.6-0.6-1-0.6-0.3 0-0.5 0.4-0.3 0.6 0 0.1 0.1 0.1 0.1 0.2-2.4 0.4-4.8 1.2-7.2 1.6-2.9 0.5-5.9 0.6-8.8 0.7-1.3 0.1-7.09-0.46-8.69-0.66-2.4-0.4-4.61-0.94-7.01-1.24v-0.5c-0.1-0.1-0.2-0.2-0.3-0.2-0.4 0-0.5 0.3-0.7 0.6s-0.3 0.6-0.4 0.8c-0.2 0.5 0.4 0.9 0.8 0.4 0.1-0.1 0.2-0.3 0.3-0.4 3.1 2.3 5.2 5.4 8.1 7.7 2.8 2.3 5.8 2.9 9.4 3 3.5 0.1 6.8-0.8 9.2-3.5 1.1-1.2 1.9-2.5 2.9-3.8s2.1-2.3 3.2-3.4c0.1 0.2 0.2 0.4 0.4 0.5s0.4 0.1 0.5-0.1c0.3-0.2 0-1-0.3-1.4zm-6.5 5.1c-2.7 3-5.5 4.3-9.6 4.6s-7.5-0.4-10.5-3.3c-1.5-1.4-2.8-3.1-4.4-4.4 1.8 0.6 3.9 0.9 5.6 1.2 1.4 0.3 6.11 0.92 8.4 0.9 2.8 0.1 5.6-0.5 8.4-1.1 1.7-0.3 3.4-0.7 5-1.2-1.1 1-2 2.3-2.9 3.3z" fill="#da7c87" stroke-width="2.2355"/> <g stroke-width="1.7526"> <path d="m92.2 101.8s-0.6-1.9-2-3.8-3.3-3.9-6.6-4.5-12.1 2.2-12.1 2.2 1.4 1.9 3.1 3.1 6.3 2.9 8.2 2.8 4.2-0.5 5.2-0.5c1.2 0 3.2 0 4.2 0.7z" fill="#fff" stroke-width="2.2355"/> <g stroke-width="1.7526"> <g stroke-width="2.2355"> <path d="m82 91.2c2.9 0 5.2 2.3 5.2 5.2s-2.3 5.2-5.2 5.2-5.2-2.3-5.2-5.2 2.3-5.2 5.2-5.2z" fill="#384b94"/> <path d="m82 101.8c-3 0-5.4-2.4-5.4-5.4s2.4-5.4 5.3-5.4 5.4 2.4 5.4 5.4c0.1 3-2.3 5.4-5.3 5.4zm-0.1-10.2c-2.7 0-4.9 2.2-4.9 4.9s2.2 4.9 4.9 4.9 4.9-2.2 4.9-4.9c0-2.8-2.2-5-4.9-4.9z" fill="#253984"/> <path d="m82 92c2.4 0 4.4 2 4.4 4.4s-2 4.4-4.4 4.4-4.4-2-4.4-4.4 2-4.4 4.4-4.4z" fill="#43559b"/> <path d="m82 92.6c2.1 0 3.8 1.7 3.8 3.8s-1.7 3.8-3.8 3.8-3.8-1.7-3.8-3.8 1.7-3.8 3.8-3.8z" fill="#4e60a3"/> <path d="m82 93.6c1.5 0 2.8 1.3 2.8 2.8s-1.3 2.8-2.8 2.8-2.8-1.3-2.8-2.8 1.3-2.8 2.8-2.8z"/> <path d="m80.7 93.6c0.5 0 1 0.4 1 1s-0.4 1-1 1c-0.5 0-1-0.4-1-1s0.5-1 1-1zm3.2 4.4c0.2 0 0.4 0.2 0.4 0.4s-0.2 0.4-0.4 0.4-0.4-0.2-0.4-0.4c0.1-0.2 0.2-0.4 0.4-0.4z" fill="#fff"/> </g> </g> <path d="m70.7 98c0 6.9 4.9 12.5 11 12.5s11-5.6 11-12.5-4.9-12.5-11-12.5-11 5.6-11 12.5zm0.9-2.3s8.8-2.9 12.1-2.2c3.3 0.6 5.3 2.6 6.6 4.5 1.4 1.9 2 3.8 2 3.8-1-0.7-3.1-0.7-4.1-0.7-1.1 0-3.3 0.5-5.2 0.5-1.9 0.1-6.4-1.7-8.2-2.8-1.9-1.2-3.2-3.1-3.2-3.1z" fill="#f3d4cf" stroke-width="2.2355"/> <path d="m71.4 96c0.2 0.3 0.4 0.6 0.7 0.9-0.8-0.2-1.8 0-2.4 0.5-0.1 0.1 0 0.2 0.1 0.2 0.5-0.2 1.1-0.3 1.7-0.3 0.5 0 0.9 0.2 1.3 0.4 0.1 0.1 0.2 0.2 0.4 0.3-0.6 0.1-1.1 0.4-1.4 0.8-0.1 0.1 0 0.3 0.1 0.2 0.5-0.3 1.1-0.5 1.6-0.7 1.7 1.4 3.7 2.4 5.6 3 1.7 0.5 3.4 0.8 5.2 0.6 2.7-0.3 5.1-1.4 7.8 0 0.1 0.1 0.2-0.1 0.1-0.2 0.1 0 0.1-0.1 0.1-0.2-1.2-4.4-4.7-8.2-9.4-9.1-1.9-0.3-3.7 0-5.5 0.5-1.2-0.3-2.1-0.9-3.1-1.8-0.1-0.1-0.3 0-0.2 0.2 0.5 0.9 1.5 1.6 2.5 1.9-0.3 0.1-0.6 0.2-0.8 0.3-1.8 0.1-3.2-0.6-4.6-1.7-0.1-0.1-0.3 0.1-0.2 0.2 0.9 1.1 2.3 1.7 3.7 1.9-0.5 0.2-0.9 0.3-1.4 0.4-1.9 0-3.5-0.6-5.2-1.7-0.1-0.1-0.2 0.1-0.1 0.2 1 1.1 2.5 1.8 4 1.9-2.3 0.5-4.4 0.3-6.8-1.2-0.1-0.1-0.3 0.1-0.2 0.2 2.2 1.9 4.3 2.4 6.4 2.3zm0.5 0c1.3-0.1 2.7-0.5 4.2-1 3.2-1 7-1.9 10.1-0.2 2.8 1.5 4.4 4.1 5.8 6.8-2.9-1.5-5.7-0.3-8.8-0.5-4.5-0.2-8-2.4-11.3-5.1z" stroke-width="2.2355"/> <path d="m107.8 101.8s0.6-1.9 2-3.8 3.3-3.9 6.6-4.5 12.1 2.2 12.1 2.2-1.4 1.9-3.1 3.1-6.3 2.9-8.2 2.8-4.2-0.5-5.2-0.5c-1.2 0-3.2 0-4.2 0.7z" fill="#fff" stroke-width="2.2355"/> <g stroke-width="1.7526"> <g stroke-width="2.2355"> <path d="m118 91.2c2.9 0 5.2 2.3 5.2 5.2s-2.3 5.2-5.2 5.2-5.2-2.3-5.2-5.2 2.3-5.2 5.2-5.2z" fill="#384b94"/> <path d="m118.1 101.8c-3 0-5.4-2.4-5.4-5.4s2.3-5.4 5.3-5.4 5.4 2.4 5.4 5.4c0.1 3-2.3 5.4-5.3 5.4zm-0.1-10.2c-2.7 0-4.9 2.2-4.9 4.9s2.2 4.9 4.9 4.9 4.9-2.2 4.9-4.9c0-2.8-2.2-5-4.9-4.9z" fill="#253984"/> <path d="m118 92c2.4 0 4.4 2 4.4 4.4s-2 4.4-4.4 4.4-4.4-2-4.4-4.4 2-4.4 4.4-4.4z" fill="#43559b"/> <path d="m118 92.6c2.1 0 3.8 1.7 3.8 3.8s-1.7 3.8-3.8 3.8-3.8-1.7-3.8-3.8 1.7-3.8 3.8-3.8z" fill="#4e60a3"/> <path d="m118 93.6c1.5 0 2.8 1.3 2.8 2.8s-1.3 2.8-2.8 2.8-2.8-1.3-2.8-2.8 1.3-2.8 2.8-2.8z"/> <path d="m116.8 93.6c0.5 0 1 0.4 1 1s-0.4 1-1 1-1-0.4-1-1 0.4-1 1-1zm3.2 4.4c0.2 0 0.4 0.2 0.4 0.4s-0.2 0.4-0.4 0.4-0.4-0.2-0.4-0.4 0.2-0.4 0.4-0.4z" fill="#fff"/> </g> </g> <path d="m118.3 85.5c-6.1 0-11 5.6-11 12.5s4.9 12.5 11 12.5 11-5.6 11-12.5-5-12.5-11-12.5zm7 13.3c-1.7 1.2-6.3 2.9-8.2 2.8s-4.2-0.5-5.2-0.5c-1.1 0-3.1 0-4.1 0.7 0 0 0.6-1.9 2-3.8s3.3-3.9 6.6-4.5 12.1 2.2 12.1 2.2-1.4 1.9-3.2 3.1z" fill="#f3d4cf" stroke-width="2.2355"/> <path d="m134.8 93.7c0.1-0.1 0-0.3-0.2-0.2-2.4 1.5-4.5 1.7-6.8 1.2 1.5-0.1 2.9-0.8 4-1.9 0.1-0.1 0-0.3-0.1-0.2-1.6 1.2-3.3 1.8-5.2 1.7-0.4-0.1-0.9-0.3-1.4-0.4 1.4-0.1 2.9-0.7 3.7-1.9 0.1-0.1-0.1-0.3-0.2-0.2-1.5 1.1-2.8 1.8-4.6 1.7-0.3-0.1-0.6-0.2-0.8-0.3 1-0.3 2-1 2.5-1.9 0.1-0.1-0.1-0.3-0.2-0.2-1 0.9-1.9 1.5-3.1 1.8-1.8-0.5-3.6-0.8-5.5-0.5-4.6 0.9-8.1 4.6-9.4 9.1 0 0.1 0 0.2 0.1 0.2-0.1 0.1 0 0.2 0.1 0.2 2.7-1.4 5.1-0.3 7.8 0 1.8 0.2 3.5-0.1 5.2-0.6 1.9-0.6 3.9-1.7 5.6-3 0.6 0.2 1.1 0.4 1.6 0.7 0.1 0.1 0.2-0.1 0.1-0.2-0.4-0.4-0.9-0.7-1.4-0.8 0.1-0.1 0.2-0.2 0.4-0.3 0.4-0.2 0.8-0.4 1.3-0.4 0.6 0 1.1 0.1 1.7 0.3 0.1 0 0.2-0.1 0.1-0.2-0.6-0.5-1.5-0.7-2.4-0.5 0.2-0.3 0.5-0.6 0.7-0.9 2.3 0.1 4.4-0.4 6.4-2.3zm-18 7.5c-3.1 0.2-5.9-1-8.8 0.5 1.3-2.7 3-5.3 5.8-6.8 3.2-1.7 6.9-0.8 10.1 0.2 1.5 0.5 2.9 0.8 4.2 1-3.3 2.6-6.8 4.8-11.3 5.1z" stroke-width="2.2355"/> </g> </g> <g transform="matrix(.45289 0 0 .45289 17.448 41.481)" fill="#280b0b" stroke-width="1.7526"> <g fill="#280b0b" stroke-width="1.7526"> <g fill="#280b0b" stroke-width="2.2355"> <path d="m70.7 85.3c0.1 0 0.3 0 0.4 0.1 0.2-0.1 0.6-0.1 0.9 0 0.1 0 0.3 0 0.4-0.1 0.5-0.1 0.9-0.1 1.4-0.1h0.5c0.5-0.2 1-0.3 1.5-0.3 0.8-0.1 1.6-0.2 2.4-0.2 0.3-0.1 0.5-0.1 0.8-0.2 0.5-0.1 0.9-0.3 1.4-0.4 0.4-0.1 0.8-0.1 1.3-0.2 1.1-0.4 2.2-0.8 3.4-1.2h0.2c0.8-0.4 1.7-0.8 2.7-1h0.1c0.6-0.2 1.2-0.3 1.8-0.2 0.3 0 0.6 0 0.8 0.2 0.1 0 0.2 0.1 0.3 0.1 1.1 0.3 1.2 1.8 0.7 2.6-0.3 0.5-0.9 1-1.6 1.4-0.5 0.4-1.1 0.6-1.8 0.7 0 0-0.1 0-0.1 0.1-1.5 0.6-3.3 0.9-5 0.8-1 0-2.3 0-3.3-0.4-1 0.3-2.3 0.1-3.4-0.1-0.7-0.1-1.4-0.1-2.1-0.3-0.5 0.1-1.1 0-1.6-0.1s-1.3-0.1-1.7-0.4l-0.1-0.1c-0.2 0-0.3-0.1-0.5-0.1-0.4-0.2-0.2-0.6 0.2-0.6z"/> <path d="m87.7 81.6c1.9-0.1 3.4 1.5 3.6 2.8 0.2-1.2-0.2-2.4-2-2.8-0.2 0-0.2-0.2 0-0.3 2.5-0.3 3.3 2.6 2 3.8h-0.2c-0.1 0-0.2 0-0.2-0.1-0.2-0.7-0.4-1.4-1.1-2-0.6-0.6-1.5-0.8-2.3-1.2 0-0.1 0-0.2 0.2-0.2zm-5.9 1.6c2.8-0.8 6.7 0.4 7.8 2.5 0 0.1-0.1 0.2-0.1 0.1-0.8-0.8-1.7-1.5-2.9-1.9-1.6-0.5-3.1-0.4-4.7-0.4-0.3-0.1-0.3-0.2-0.1-0.3zm-4.5 1.1c1.4 0.6 2.8 1.2 4.4 1.5 1.5 0.4 3.1 0.6 4.7 0.7 0.1 0 0.1 0.2 0 0.2-3.2 0.1-6.8-0.6-9.3-2.1-0.2-0.1 0-0.4 0.2-0.3zm-6 1c1.6 0.3 3.1 0.8 4.6 1 1.6 0.3 3.2 0.4 4.7 0.6 0.1 0 0.1 0.1 0 0.1-3.1 0.2-6.8-0.4-9.5-1.5-0.1-0.1 0-0.3 0.2-0.2z"/> <path d="m82.4 87.4c3.5 0 9.3-0.1 10.1-3.5 0.2-1.1-0.3-2.2-1.5-2.8-1.6-0.8-3.3-0.1-4.8 0.5-5.1 2-10.3 2.9-15.9 3.5-0.2 0-0.3 0.2-0.3 0.3-0.1-0.1-0.3-0.1-0.4-0.2-0.2-0.1-0.4 0.1-0.3 0.2 1.1 1.2 3.4 1.3 5.1 1.5 2.7 0.4 5.4 0.6 8 0.5zm-12-1.9c2.3 0 4.6-0.3 6.9-0.8 1.6 0.9 3.4 1.6 5.4 2.1h-1.5c-3.4 0-7.6-0.1-10.8-1.3zm10.7-1.6c0.1 0 0.1 0 0.2-0.1l0.1 0.1c2.2 0.6 4 1.4 5.8 2.7-1.1 0.2-2.2 0.2-3.3 0.3h-0.1c-2.1-0.6-4.1-1.3-6.1-2.1 1.1-0.3 2.3-0.6 3.4-0.9zm6.4 2.6c-1.4-1.4-3.5-2.4-5.7-2.8 0.9-0.2 1.8-0.5 2.7-0.8 1.2 0.3 2.3 0.5 3.3 1.1 0.9 0.5 1.6 1.1 2.2 1.7-0.8 0.4-1.6 0.6-2.5 0.8 0.1 0 0 0 0 0zm3.5-1.6c-0.3-1.3-1.8-2.7-3.4-2.9-0.2 0-0.3 0.1-0.2 0.2 0.7 0.4 1.4 0.7 2 1.2 0.6 0.6 0.9 1.2 1.2 1.8-0.1 0.1-0.2 0.1-0.2 0.2-1-1.4-3.1-2.6-5.2-2.8 0.2-0.1 0.3-0.1 0.5-0.2 2-0.7 5.4-2.1 6.1 0.5 0.1 0.8-0.2 1.5-0.8 2z"/> <path d="m129.3 85.3c-0.1 0-0.3 0-0.4 0.1-0.2-0.1-0.6-0.1-0.9 0-0.1 0-0.3 0-0.4-0.1-0.5-0.1-0.9-0.1-1.4-0.1h-0.5c-0.5-0.2-1-0.3-1.5-0.3-0.8-0.1-1.6-0.2-2.4-0.2-0.3-0.1-0.5-0.1-0.8-0.2-0.5-0.1-0.9-0.3-1.4-0.4-0.4-0.1-0.8-0.1-1.3-0.2-1.1-0.4-2.2-0.8-3.4-1.2h-0.2c-0.8-0.4-1.7-0.8-2.7-1h-0.1c-0.6-0.2-1.2-0.3-1.8-0.2-0.3 0-0.6 0-0.8 0.2-0.1 0-0.2 0.1-0.3 0.1-1.1 0.3-1.2 1.8-0.7 2.6 0.3 0.5 0.9 1 1.6 1.4 0.5 0.4 1.1 0.6 1.8 0.7 0 0 0.1 0 0.1 0.1 1.5 0.6 3.3 0.9 5 0.8 1 0 2.3 0 3.3-0.4 1 0.3 2.3 0.1 3.4-0.1 0.7-0.1 1.4-0.1 2.1-0.3 0.5 0.1 1.1 0 1.6-0.1s1.3-0.1 1.7-0.4c0.1 0 0.1-0.1 0.2-0.1 0.2 0 0.4-0.1 0.5-0.1 0.3-0.2 0.1-0.6-0.3-0.6z"/> <path d="m112.3 81.6c-1.9-0.1-3.4 1.5-3.6 2.8-0.2-1.2 0.2-2.4 2-2.8 0.2 0 0.2-0.2 0-0.3-2.5-0.3-3.3 2.6-2 3.8h0.2c0.1 0 0.2 0 0.2-0.1 0.2-0.7 0.4-1.4 1.1-2 0.6-0.6 1.5-0.8 2.3-1.2 0-0.1 0-0.2-0.2-0.2zm5.9 1.6c-2.8-0.8-6.7 0.4-7.8 2.5 0 0.1 0.1 0.2 0.1 0.1 0.8-0.8 1.7-1.5 2.9-1.9 1.6-0.5 3.1-0.4 4.7-0.4 0.3-0.1 0.3-0.2 0.1-0.3zm4.5 1.1c-1.4 0.6-2.8 1.2-4.4 1.5-1.5 0.4-3.1 0.6-4.7 0.7-0.1 0-0.1 0.2 0 0.2 3.2 0.1 6.8-0.6 9.3-2.1 0.2-0.1 0-0.4-0.2-0.3zm6 1c-1.6 0.3-3.1 0.8-4.6 1-1.6 0.3-3.2 0.4-4.7 0.6-0.1 0-0.1 0.1 0 0.1 3.1 0.2 6.8-0.4 9.5-1.5 0.1-0.1 0-0.3-0.2-0.2z"/> <path d="m125.5 87c1.7-0.2 4-0.3 5.1-1.5 0.1-0.1-0.1-0.3-0.3-0.2-0.1 0.1-0.2 0.1-0.4 0.2 0-0.1-0.1-0.3-0.3-0.3-5.7-0.5-10.8-1.5-15.9-3.5-1.4-0.6-3.2-1.3-4.8-0.5-1.2 0.6-1.8 1.8-1.5 2.8 0.8 3.4 6.6 3.5 10.1 3.5 2.7 0 5.4-0.2 8-0.5zm-6.7-0.2h-1.5c1.9-0.4 3.8-1.2 5.4-2.1 2.3 0.4 4.6 0.7 6.9 0.8-3.2 1.2-7.4 1.3-10.8 1.3zm3.5-2.1c-2 0.8-4 1.5-6.1 2.1h-0.1c-1.1 0-2.2-0.1-3.3-0.3 1.7-1.2 3.5-2 5.8-2.7 0 0 0.1 0 0.1-0.1 0.1 0 0.1 0 0.2 0.1 1.1 0.4 2.3 0.7 3.4 0.9zm-9.9 1.8c-0.8-0.2-1.7-0.4-2.4-0.8 0.7-0.6 1.3-1.2 2.2-1.7 1-0.5 2.2-0.8 3.3-1.1 0.9 0.3 1.8 0.6 2.7 0.8-2.2 0.4-4.4 1.5-5.8 2.8 0.1 0 0 0 0 0zm-4.1-3.5c0.7-2.6 4.1-1.2 6.1-0.5 0.2 0.1 0.3 0.1 0.5 0.2-2.1 0.2-4.3 1.4-5.2 2.8-0.1-0.1-0.2-0.1-0.2-0.2 0.3-0.7 0.6-1.3 1.2-1.8s1.3-0.8 2-1.2c0.2-0.1 0-0.2-0.2-0.2-1.6 0.2-3.1 1.6-3.4 2.9-0.7-0.6-1-1.3-0.8-2z"/> </g> </g> </g> <g transform="matrix(.45289 0 0 .45289 17.448 41.481)" stroke-width="1.7526"> <g stroke-width="2.2355"> <path transform="translate(0,2)" d="m97.72 89.37c-0.8 3.33-0.91 6.89-1.27 10.29-0.38 3.64-1.08 7.4-1.03 11.06 0 0.29 0.45 0.37 0.52 0.07 0.74-3.34 0.83-6.91 1.18-10.31 0.37-3.64 1.05-7.41 0.93-11.06 0-0.19-0.28-0.24-0.33-0.05z" fill="#c5796d"/> <path transform="translate(0,2)" d="m94.71 108.8c-0.98 1.31-1.8 2.73-2.52 4.2-0.46 0.95-1.04 2.07-0.73 3.16 0.5 1.8 2.79 2.36 4.28 1.51 0.44-0.26 0.24-0.95-0.26-0.95-0.87-0.01-1.89 0.27-2.58-0.47-0.84-0.89-0.01-2.5 0.36-3.4 0.55-1.32 1.22-2.59 1.74-3.92 0.07-0.19-0.19-0.26-0.29-0.13z" fill="#c5796d"/> <path transform="translate(0,2)" d="m94.57 116.21c2.7-0.2 3.21 3.2 5.78 3.28 2.2 0.07 2.37-3.24 4.46-3.14 0.24 0.01 0.32-0.33 0.12-0.45-2.37-1.4-2.81 2.72-4.99 2.46-1.29-0.15-2.21-2.05-3.37-2.6-0.79-0.37-1.36-0.34-2.13 0.01-0.19 0.11-0.09 0.46 0.13 0.44z" fill="#c5796d"/> <path transform="translate(0,2)" d="m104.07 117.75c1.78 0.4 3.85-0.15 4.27-2.13 0.21-0.99-0.12-1.97-0.64-2.81-0.84-1.37-1.93-2.53-2.73-3.95-0.13-0.24-0.47-0.12-0.48 0.13-0.1 1.59 1.08 2.69 1.92 3.92 0.78 1.13 1.45 2.69 0.14 3.81-0.6 0.51-1.74 0.42-2.48 0.56-0.24 0.05-0.23 0.42 0 0.47z" fill="#c5796d"/> <path transform="translate(0,2)" d="m102.32 112.41c-0.39-0.7-1.4-0.81-1.96-0.25-0.05 0.05-0.23 0.28-0.28 0.34-0.06 0.08-0.19 0.25-0.21 0.28-0.06 0.1-0.12 0.2-0.17 0.3l-0.11 0.26c0-0.01-0.01 0.01-0.03 0.05-0.06 0.06-0.12 0.13-0.17 0.19-0.17 0.18-0.34 0.36-0.48 0.57-0.4 0.63-0.08 1.35 0.46 1.75 0.83 0.62 2.03 0.12 2.61-0.58 0.7-0.84 0.89-1.92 0.34-2.91z" fill="#fbe5e2"/> </g> </g> <path d="m91.087 67.477c-0.09058-1.2681-0.58875-2.5815-1.4492-3.4872 0.09058-1.3587-0.4076-2.7173-1.4039-3.759-0.18115-0.18115-0.4076-0.36231-0.58875-0.49818-0.4076-0.8152-1.0869-1.5398-1.8115-2.0833-1.2681-2.9438-3.8948-5.4346-6.8839-4.1213-1.7663-1.1322-4.6194-1.0416-5.3441 1.0869-1.9021 0.63404-3.3966 2.4909-3.3061 4.393-2.4003-1.0869-5.5705-0.67933-7.7896 0.67933-1.9474-1.2681-4.5742-1.6304-7.0197-1.1775-0.13587-1.2228-0.67933-2.4003-1.6757-3.2155-0.36231-1.3587-1.3587-2.6267-2.7626-3.1702-1.9474-0.8152-3.8948-0.45289-5.5705 0.54346-1.5851 0.54346-2.989 1.7663-3.6231 3.2608-0.67933 0.22644-1.2681 0.58875-1.8115 1.0416-0.27173 0.22644-0.49818 0.49818-0.72462 0.76991h-0.04529c-1.9474 1.0869-3.3061 3.2608-2.8985 5.5705 0 0.13586 0.04529 0.27173 0.09058 0.4076-0.04529 0.09058-0.09058 0.22644-0.13587 0.31702-1.4492 1.3587-2.5362 3.0343-2.1739 5.1176 0.18116 1.2228 0.95106 2.3097 2.038 2.7626 0.09058 0.13587 0.22644 0.27173 0.31702 0.4076 0.49818 0.49818 1.1775 0.76991 1.8115 0.72462 0.54346 0.63404 1.3134 1.0869 2.2191 1.2228 0.49818 0.09058 0.99635 0.04529 1.4492-0.09058-0.36231 3.0796 0.22644 6.3857 1.7663 8.469 0.04529 0.09058 0.13587 0.09058 0.18115 0.04529 0.31702 0.58875 0.63404 1.1775 0.99635 1.721-0.04529 0.4076-0.18115 0.86048-0.36231 1.3587-0.13587 0.4076-0.22644 0.76991-0.18115 1.2228 0.09058 1.2681 1.0869 2.2191 1.2681 3.4872 0 0.09058 0.18116 0.09058 0.18116 0 0.27173-1.5851-0.99635-2.8985-0.54346-4.4836 0.18116-0.63404 0.36231-1.2228 0.36231-1.7663 0.18116-0.90577 0-1.9927-0.27173-2.989 0.13587-0.04529 0.22644-0.18115 0.18115-0.31702-0.04529-0.09058-0.04529-0.22644-0.09058-0.31702 0.09058 0.09058 0.36231 0.09058 0.31702-0.09058-0.04529-0.45289-0.13587-0.86048-0.22644-1.3134v-0.27173c0.04529-0.04529 0.09058-0.13587 0.09058-0.22644-0.04529-0.31702-0.09058-0.63404-0.18115-0.95106 0.04529 0.04529 0.13587 0.04529 0.22644 0.04529 0.04529 0.04529 0.04529 0.09058 0.09058 0.13587 0.09058 0.13587 0.27173 0 0.22644-0.13587-0.04529-0.13587-0.09058-0.22644-0.13587-0.36231v-0.27173c0.18115 0.09058 0.4076-0.04529 0.36231-0.27173-0.04529-0.18116-0.09058-0.36231-0.18116-0.54346 0.13587 0.09058 0.31702-0.04529 0.27173-0.22644l-0.13587-0.54346c0.22644 0.09058 0.49818-0.09058 0.4076-0.36231l-0.13587-0.4076 0.18116 0.18115c0.13586 0.13587 0.36231-0.09058 0.31702-0.22644 0-0.04529-0.04529-0.09058-0.04529-0.18116 0.31702 0.13587 0.63404-0.27173 0.49818-0.58875-0.09058-0.22644-0.22644-0.49818-0.31702-0.72462 0.04529 0.04529 0.04529 0.09058 0.09058 0.13587 0.09058 0.13587 0.31702 0.04529 0.27173-0.09058 0-0.04529-0.04529-0.09058-0.04529-0.13587 0.04529 0.09058 0.13587 0.13587 0.18116 0.18115 0.18115 0.18116 0.54346 0 0.49818-0.22644 0.31702 0.18116 0.72462-0.13587 0.54346-0.54346-0.13587-0.31702-0.31702-0.63404-0.45289-0.95106l0.54346 0.67933c0.04529 0.09058 0.13587 0.09058 0.18115 0.09058 0.04529 0.04529 0.09058 0.09058 0.13587 0.18115 0.18116 0.18116 0.54346-0.04529 0.36231-0.27173-0.22644-0.31702-0.45289-0.63404-0.67933-0.99635-0.04529-0.04529-0.04529-0.09058-0.09058-0.13586 0.09058 0.09058 0.13586 0.22644 0.22644 0.31702 0.09058 0.09058 0.22644 0.13587 0.31702 0.09058 0.13587 0.04529 0.36231-0.13587 0.22644-0.31702-0.04529-0.04529-0.04529-0.09058-0.09058-0.18116 0.22644 0.18116 0.45289 0.31702 0.67933 0.45289s0.58875-0.13587 0.4076-0.4076c-0.09058-0.09058-0.18115-0.22644-0.22644-0.31702 0.09058 0 0.18116-0.09058 0.18116-0.18115 0.09058 0.04529 0.22644 0.09058 0.31702 0.13587 0.31702 0.09058 0.49818-0.31702 0.31702-0.49818-0.13587-0.13587-0.27173-0.27173-0.4076-0.36231 0.31702 0.13587 0.58875 0.22644 0.90577 0.27173 0.27173 0.04529 0.4076-0.27173 0.18115-0.45289-0.04529-0.04529-0.09058-0.09058-0.18115-0.13587 0.18115 0.04529 0.36231 0.09058 0.49818 0.13587 0.31702 0.04529 0.45289-0.31702 0.18115-0.49818h0.09058c0.09058 0 0.13587 0 0.18115-0.04529 0.09058 0.09058 0.18116 0.13587 0.27173 0.22644 0.31702 0.27173 0.8152-0.18116 0.49818-0.49818-0.04529 0-0.04529-0.04529-0.09058-0.09058 0.13587 0.13587 0.31702 0.22644 0.45289 0.36231 0.18116 0.13587 0.4076-0.18115 0.27173-0.36231l-0.27173-0.27173c0.22644 0.04529 0.45289 0.09058 0.63404 0.13586h0.09058c-0.54346 0.45289-0.99635 1.1322-1.1322 1.8115-0.04529 0.13587 0.18116 0.22644 0.22644 0.09058 0.36231-0.72462 0.8152-1.3587 1.5398-1.7663 0.4076-0.22644 0.8152-0.31702 1.1775-0.36231h0.22644c-0.76991 0.67933-1.3587 1.6757-1.5398 2.7173-0.13587 0.86048 0 1.6757 0.13587 2.4909 0 1.5398 0.22644 3.1702 0.09058 4.5289 0 0.09058 0.13586 0.09058 0.13586 0 0.31702-0.99635 0.36231-1.9927 0.36231-3.0343 0.22644-0.90577 0.09058-1.7663 0.09058-2.6267 0.13587-1.0869 0.45289-2.0833 1.2228-3.0343 0 0 0.04529-0.04529 0.04529-0.09058 0.58875-0.54346 1.2681-0.76991 1.9927-0.86048-0.27173 0.13586-0.49818 0.31702-0.67933 0.45289-0.8152 0.72462-1.3134 1.9021-1.4492 3.0343-0.36231 1.6304-0.31702 3.3966-0.49818 4.9365 0 0.09058 0.13587 0.09058 0.13587 0 0.67933-1.7663 0.76991-5.4346 2.038-7.2462 0.8152-0.86048 1.9021-1.0869 3.0343-0.8152h0.13587c0.04529 0 0.09058 0 0.09058 0.04529h0.09058c0.09058 0.04529 0.13587 0.04529 0.22644 0.09058 0.13587 0.18115 0.4076 0.27173 0.67933 0.13586 0.04529 0.09058 0.13587 0.09058 0.18116 0.04529 1.2681-0.8152 3.5778-1.1322 3.8948 0.90577 0.18115 1.0869-0.58875 2.0833-0.31702 3.2155 0.04529 0.09058 0.18116 0.09058 0.22644 0 0.31702-1.5851 1.5398-3.3061 0.13586-4.71h0.04529c0.22644-0.04529 0.45289-0.09058 0.72462-0.13587-0.09058 0.22644 0.13587 0.54346 0.4076 0.45289 0.49818-0.09058 1.0869-0.27173 1.6757-0.4076l-0.4076 0.27173c-0.36231 0.22644-0.13587 0.95106 0.31702 0.76991l1.6304-0.67933c-0.27173 0.18115-0.58875 0.36231-0.86048 0.58875-0.27173 0.18115-0.04529 0.54346 0.27173 0.45289 0.18116-0.09058 0.4076-0.18115 0.58875-0.27173 0.04529 0.13587 0.18116 0.27173 0.36231 0.22644 0.04529 0 0.09058 0 0.09058-0.04529-0.09058 0.27173 0.09058 0.58875 0.4076 0.45289 0.45289-0.18115 0.8152-0.4076 1.2228-0.67933-0.22644 0.27173-0.49818 0.54346-0.72462 0.8152-0.27173 0.27173 0.09058 0.72462 0.4076 0.54346h0.04529l-0.09058 0.09058c-0.22644 0.22644 0.09058 0.63404 0.36231 0.45289 0.27173-0.13587 0.54346-0.31702 0.76991-0.49818-0.04529 0.09058-0.13587 0.18115-0.18116 0.27173-0.18116 0.27173 0.18116 0.49818 0.45289 0.31702h0.04529c-0.04529 0.27173 0.27173 0.49818 0.54346 0.27173 0.22644-0.22644 0.49818-0.45289 0.76991-0.72462-0.22644 0.27173-0.49818 0.58875-0.76991 0.86048-0.22644 0.22644 0.09058 0.67933 0.36231 0.49818 0.36231-0.22644 0.72462-0.54346 1.0869-0.86048-0.27173 0.49818-0.54346 0.95106-0.76991 1.4492-0.13587 0.27173 0.18116 0.58875 0.45289 0.36231 0.27173-0.22644 0.49818-0.49818 0.72462-0.76991-0.22644 0.36231-0.45289 0.67933-0.58875 1.0416-0.09058 0.22644 0.09058 0.45289 0.31702 0.31702 0.09058-0.04529 0.18116-0.09058 0.27173-0.18115 0.04529 0.22644 0.36231 0.36231 0.54346 0.13587 0.67933-0.76991 1.2681-1.5398 1.7663-2.4909 0.04529-0.09058 0.09058-0.13587 0.13587-0.22644-0.13587 0.31702-0.27173 0.67933-0.4076 0.99635-0.45289 0.95106-1.0869 1.8115-1.7663 2.6267-0.18116 0.22644 0.04529 0.67933 0.36231 0.45289 0.4076-0.31702 0.8152-0.67933 1.1775-1.1322-0.4076 0.76991-0.90577 1.4492-1.4492 2.0833-0.22644 0.27173 0.13587 0.63404 0.4076 0.4076 0.54346-0.45289 1.0416-0.99635 1.4039-1.5851-0.31702 0.8152-0.67933 1.5851-1.0869 2.4003-0.13587 0.22644 0.18116 0.49818 0.36231 0.27173 0.49818-0.54346 0.95106-1.2228 1.3587-1.9021-0.31702 0.76991-0.63404 1.4945-0.99635 2.2191-0.09058 0.18115 0.09058 0.4076 0.27173 0.36231-0.09058 0.13587-0.18115 0.22644-0.27173 0.36231-0.18115 0.27173 0.18116 0.49818 0.4076 0.31702 0.18116-0.13586 0.4076-0.36231 0.58875-0.54346-0.22644 0.45289-0.4076 0.90577-0.54346 1.4039-0.09058 0.27173 0.27173 0.45289 0.45289 0.27173 0.04529-0.04529 0.04529-0.09058 0.09058-0.09058-0.18115 0.36231-0.31702 0.72462-0.49818 1.0869-0.09058 0.22644 0.09058 0.4076 0.27173 0.31702-0.04529 0.13587-0.04529 0.22644-0.09058 0.36231s-0.13587 0.27173-0.18116 0.4076c-0.04529 0.13587-0.04529 0.31702 0.09058 0.4076v0.09058c-0.22644 0.99635-0.27173 2.038-0.09058 3.0343 0 0.04529 0.04529 0.09058 0.04529 0.09058v0.27173c-0.18116 0.8152-0.18116 1.6304-0.04529 2.4909 0.27173 1.6304 0.90577 2.8079 0.45289 4.5289-0.31702 1.1775-0.63404 1.8115-0.18116 2.989 0.04529 0.09058 0.18116 0.09058 0.18116-0.04529-0.49818-2.0833 1.0869-3.6684 0.8152-5.7064-0.13587-1.0416-0.58875-2.038-0.54346-3.1249 0.04529-0.8152 0.27173-1.5398 0.54346-2.3097 0.54346-0.58875 0.95106-1.5398 1.1322-2.4003 0.95106-1.8115 1.721-3.8495 1.9021-5.8422 0.76991 0.13587 1.6304-0.13587 2.1739-0.72462 0.49818-0.45289 0.76991-1.0869 0.90577-1.7663 0.22644-0.22644 0.4076-0.49818 0.58875-0.8152 0.95106 0.45289 1.8568-0.18115 2.4456-1.0869 1.6304-0.8152 1.7663-3.4419 1.5851-5.027zm-55.343-0.45289c-0.18116 0.72462-0.27173 1.4039-0.22644 2.0833-0.22644-0.76991-0.09058-1.6304 0.22644-2.4909zm2.4456-5.6158c0-0.18116 0.04529-0.36231 0.09058-0.54346v0.45289c0 0.04529-0.04529 0.04529-0.09058 0.09058zm1.5398-2.5815c0 0.04529-0.04529 0.04529-0.04529 0.09058 0.04529-0.09058 0.09058-0.22644 0.18116-0.31702-0.09058 0.09058-0.13587 0.18116-0.13587 0.22644zm4.5742 22.69c-0.04529-0.13587-0.13587-0.31702-0.18115-0.45289 0.09058 0.13587 0.13587 0.27173 0.18115 0.45289zm0.27173-1.4492c0.04529 0.13586 0.09058 0.27173 0.18116 0.36231 0.04529 0.22644 0.13587 0.4076 0.18115 0.63404-0.13587-0.31702-0.27173-0.67933-0.36231-0.99635zm1.0416-24.818h-0.58875 0.04529c0.22644-0.04529 0.49818-0.09058 0.72462-0.09058-0.09058 0-0.13587 0.04529-0.18115 0.09058zm1.7663-1.5398c-0.22644-0.04529-0.45289-0.04529-0.67933-0.04529 0.13587 0 0.27173-0.04529 0.4076-0.04529h0.27173zm4.6647 2.038c-0.09058 0-0.13586-0.04529-0.22644-0.04529 0-0.04529 0-0.04529-0.04529-0.09058zm-0.72462-1.8568c-0.09058 0-0.18115-0.04529-0.27173-0.04529-0.09058-0.13587-0.22644-0.27173-0.36231-0.36231 0.22644 0.13587 0.45289 0.27173 0.63404 0.4076zm-0.90577-0.54346c-0.09058 0-0.13586-0.04529-0.22644-0.04529l-0.04529-0.04529c0.09058 0.04529 0.18115 0.04529 0.27173 0.09058zm4.2118 15.172v-0.09058c0.13587 0.04529 0.22644-0.04529 0.22644-0.13587 0.04529 0 0.04529 0 0.09058 0.04529-0.09058 0.04529-0.22644 0.09058-0.31702 0.18116zm4.6194-2.8532c0.09058 0.04529 0.13587 0.09058 0.22644 0.09058-0.04529 0-0.13587-0.04529-0.22644-0.09058zm1.9927-4.5289c-0.04529 0-0.09058-0.04529-0.09058-0.04529h0.13587s0 0.04529-0.04529 0.04529zm5.3441-0.49818v0 0 0zm6.431-4.71c-0.36231 0.13586-0.76991 0.36231-1.0869 0.63404 0.36231-0.54346 0.86048-0.95106 1.4039-1.2681-0.13587 0.18115-0.22644 0.4076-0.31702 0.63404zm1.1322-0.22644c0.04529-0.09058 0.09058-0.13587 0.13587-0.18115-0.04529 0.04529-0.09058 0.13587-0.13587 0.18115zm2.5362-1.4945c-0.4076-0.18115-0.90577-0.22644-1.3134-0.22644-0.09058 0-0.18116 0.04529-0.31702 0.04529 0.45289-0.27173 0.99635-0.36231 1.5398-0.27173 0.22644 0.04529 0.45289 0.09058 0.63404 0.18115-0.13587 0.04529-0.36231 0.13587-0.54346 0.27173zm2.1286 2.4909c-0.13586-0.13587-0.22644-0.31702-0.4076-0.45289v-0.04529s0.04529 0 0.04529 0.04529c0.18116 0.13587 0.31702 0.27173 0.45289 0.45289-0.04529-0.04529-0.09058-0.04529-0.09058 0zm0.54346 27.717m0.13587-0.45289-0.04529 0.04529v-0.09058c0.04529 0 0.04529 0 0.04529 0.04529zm1.4492-28.26c-0.22644-0.22644-0.49818-0.4076-0.76991-0.58875 0.36231 0.18116 0.72462 0.36231 1.0869 0.58875zm1.3134-0.86048c-0.22644-0.13587-0.45289-0.27173-0.72462-0.4076 0.58875 0.22644 1.1322 0.63404 1.6304 1.0869-0.27173-0.27173-0.58875-0.49818-0.90577-0.67933zm1.1775 21.15v-0.27173c0.4076 0 0.76991-0.04529 1.1322-0.18115-0.31702 0.31702-0.72462 0.49818-1.1322 0.45289zm3.8948-7.2462c-0.13586-0.63404-0.27173-1.3134-0.49818-1.9927 0-0.13587-0.04529-0.22644-0.04529-0.36231 0.18115 0.36231 0.27173 0.76991 0.4076 1.1775 0 0.13587 0.09058 0.63404 0.13586 1.1775zm0.72462-6.9292v-0.04529c0.04529 0.09058 0.09058 0.13587 0.13587 0.22644-0.04529-0.04529-0.09058-0.13587-0.13587-0.18116z" fill="#6b4e40" stroke-width="1.0124"/> <path d="m86.196 73.546c-0.22644 0.76991-0.72462 1.4945-1.6304 1.5851-0.86048 0.13587-1.6304-0.36231-1.9927-1.1322v-0.63404c0-0.04529 0-0.04529-0.04529-0.04529 0.86048 0.58875 1.8568 0.8152 2.6267-0.27173 0.09058-0.13587-0.09058-0.27173-0.18116-0.13587-1.8568 1.7663-4.2571-2.0833-4.9365-3.3061-0.90577-1.5851-1.3587-3.3061-1.1775-5.1629 0-0.13586-0.22644-0.18115-0.27173-0.04529-0.04529 0.27173-0.09058 0.54346-0.09058 0.76991-0.09058-0.54346-0.18116-1.1322-0.18116-1.6757h0.4076c0.04529 0.31702 0.18116 0.67933 0.4076 0.95106 0.36231 1.0869 1.1775 1.9927 2.2644 2.3097s2.4456-0.13587 2.4456-1.4492c-0.04529-2.038-3.3514-5.7517-5.2535-3.8495 0.4076-1.4039 1.4492-2.5362 3.2155-2.8079 0.72462 0.76991 1.3587 1.6304 1.9021 2.5362 0.54346 0.95106 0.99635 1.9474 1.3587 2.989 0.49818 1.4945 1.5398 6.1593-2.0833 5.4799-0.18115-0.04529-0.27173 0.22644-0.09058 0.27173 3.4419 1.2228 3.2608-3.5325 2.672-5.5705-0.63404-2.1739-1.7663-4.2118-3.3061-5.8422 0.09058-0.09058 0.09058-0.22644-0.04529-0.27173h-0.18115c-0.86048-0.86048-1.8568-1.6304-2.8985-2.2644-0.09058-0.04529-0.18116 0.09058-0.09058 0.13587 0.86048 0.63404 1.6304 1.2681 2.355 1.9927-2.7626-0.18115-4.4836 2.0833-4.4836 4.4383-0.86048-0.4076-1.6757-0.99635-2.2191-1.9021-0.90577-1.4039-1.5851-4.6647 0.86048-4.9818 0.09058 0 0.09058-0.13587 0-0.13587-2.2191 0.18115-2.4003 2.6267-1.7663 4.3024 0.54346 1.5398 1.721 2.7173 3.1702 3.2608v0.04529c-3.2608-0.09058-5.9328-3.0343-4.8459-6.5669 0.04529-0.13586-0.18115-0.18115-0.22644-0.04529-0.67933 2.038-0.13587 4.0307 1.0869 5.3893-1.0416-0.8152-1.8568-1.8115-2.3097-3.1702-0.04529-0.13587-0.27173-0.09058-0.22644 0.09058 0.04529 0.18116 0.09058 0.31702 0.13587 0.49818-1.0416-0.63404-2.4003-0.86048-3.5778-0.4076-0.13587 0.04529-0.13587 0.31702 0.04529 0.31702 1.2681-0.18115 2.355-0.13587 3.5325 0.49818 0.04529 0.04529 0.09058 0.04529 0.13587 0 0.09058 0.18116 0.13587 0.31702 0.22644 0.49818-1.7663-0.67933-3.8948-0.67933-5.6158 0.13587-0.18115 0.09058-0.04529 0.36231 0.13587 0.31702 1.9021-0.49818 3.5325-0.63404 5.4346-0.13587 0.09058 0 0.13587 0 0.13587-0.04529 0.31702 0.54346 0.72462 1.0869 1.1775 1.4945-0.31702-0.04529-0.72462-0.13587-0.99635-0.04529-0.13587 0.04529-0.09058 0.22644 0 0.27173 0.18116 0.04529 0.36231 0.04529 0.54346 0.09058h0.58875c0.04529 0 0.09058-0.04529 0.09058-0.09058 0.4076 0.31702 0.8152 0.58875 1.3134 0.76991 0.09058 0 0.13587 0 0.13587-0.04529 0.18116 0.13587 0.4076 0.22644 0.58875 0.36231-1.0869-0.18116-2.2644 0.13586-3.2608 0.58875-0.09058 0.04529-0.04529 0.22644 0.09058 0.18115 1.1775-0.31702 2.3097-0.31702 3.4872-0.36231 0.09058 0 0.13587-0.09058 0.13587-0.18115 0.63404 0.22644 1.3134 0.31702 2.038 0.27173 0.18116 0.86048 0.63404 1.721 1.4039 2.355 0 0 0.04529 0 0.04529 0.04529 0.04529 0.09058 0.04529 0.18116 0.09058 0.27173v0.04529l-0.04529-0.04529c-0.58875-0.18115-1.0869-0.27173-1.5851-0.63404-0.54346-0.36231-0.95106-0.90577-1.1775-1.5398-0.04529-0.13587-0.22644-0.09058-0.18115 0.04529 0.04529 0.09058 0.04529 0.22644 0.09058 0.31702-0.63404-0.09058-1.4039-0.13587-1.9474 0.18115-0.13587 0.09058-0.09058 0.31702 0.09058 0.27173 0.63404-0.04529 1.2681-0.18116 1.9021-0.18116 0.04529 0 0.09058 0 0.09058-0.04529 0.45289 0.95106 1.4039 1.8568 2.4909 1.9021-0.76991 0.72462-1.4945 1.4945-2.2191 2.2644-0.09058 0.09058 0.04529 0.22644 0.13587 0.13586 0.8152-0.72462 1.5398-1.4945 2.2644-2.3097 0.04529-0.04529 0.04529-0.09058 0-0.09058h0.04529c0.04529 0 0.09058-0.04529 0.13587-0.09058 0.09058 0.63404 0.22644 1.2228 0.45289 1.8115-0.36231 1.1322-0.90577 2.0833-1.5851 3.0343-0.09058 0.09058 0.09058 0.22644 0.18116 0.13587 0.76991-0.72462 1.3134-1.7663 1.5398-2.8079 0.13587 0.31702 0.31702 0.67933 0.49818 0.99635-0.27173 0.63404-0.54346 1.2681-0.86048 1.9021-0.36231 0.67933-0.76991 1.2681-1.1322 1.9021-0.09058 0.13587 0.13586 0.31702 0.27173 0.18115 0.90577-0.95106 1.6304-2.2644 1.9927-3.5778 0.18116 0.27173 0.31702 0.49818 0.49818 0.76991-0.54346 1.1322-1.0869 2.3097-1.4945 3.5325-0.04529 0.13587 0.18116 0.22644 0.22644 0.09058 0.54346-1.0869 0.99635-2.2644 1.4492-3.3966 0.09058 0.13587 0.22644 0.31702 0.31702 0.45289-0.09058-0.04529-0.18115-0.04529-0.18115 0.09058-0.18116 1.4039-0.67933 2.5815-1.2681 3.8042-0.09058 0.18116 0.13587 0.31702 0.27173 0.13587 0.86048-1.1322 1.1775-2.5362 1.2681-3.9401v-0.04529c0.04529 0.04529 0.09058 0.09058 0.13587 0.18115 0.27173 0.31702 0.58875 0.72462 0.99635 1.0416-0.13587 1.2681-0.45289 2.4003-0.86048 3.5778-0.04529 0.13587 0.13586 0.22644 0.22644 0.09058 0.54346-1.0869 0.90577-2.2644 0.95106-3.4419 0.04529 0.04529 0.09058 0.09058 0.18116 0.13587-0.04529 0-0.13587 0-0.13587 0.09058-0.18116 1.8568-0.58875 3.3966-1.2681 5.1176-0.04529 0.13586 0.18115 0.27173 0.27173 0.09058 0.72462-1.2228 1.0869-2.7173 1.1775-4.1213 0.04529 0.09058 0.09058 0.13587 0.13587 0.22644l-0.04529 0.04529c-0.4076 2.7626-1.1775 5.2082-2.4456 7.6991-0.09058 0.13587 0.13587 0.27173 0.22644 0.13587l0.8152-1.3587c-0.09058 0.22644-0.18116 0.45289-0.22644 0.67933-0.04529 0.09058 0.13587 0.18116 0.18115 0.09058 0.76991-1.5398 1.2228-3.2608 1.4492-4.9818 0.13587-0.72462 0.18115-1.4039 0.22644-2.1286 0.45289 0.45289 1.0416 0.72462 1.721 0.63404 0.95106-0.13586 1.7663-0.95106 1.8115-1.9474-0.09058-0.22644-0.31702-0.22644-0.36231-0.09058zm-2.9438-8.8766c0.58875 1.9021-1.2228 2.1286-2.4456 1.4039-0.09058-0.09058-0.22644-0.13586-0.31702-0.22644 0.99635 0.54346 2.4456 0.27173 2.5362-1.0416 0-0.13587-0.18116-0.13587-0.22644-0.04529-0.45289 1.1775-1.8115 0.99635-2.5815 0.27173-0.22644-0.22644-0.54346-0.54346-0.76991-0.95106-0.04529-0.09058-0.04529-0.18115-0.04529-0.22644 0-0.09058-0.09058-0.13587-0.13587-0.13587-0.04529-0.04529-0.04529-0.13587-0.04529-0.18115 0.13587-0.04529 0.13587-0.27173-0.04529-0.27173h-0.04529c-0.04529-0.27173 0-0.49818 0.13587-0.72462 0.04529-0.09058-0.09058-0.22644-0.18116-0.13587-0.13587 0.18115-0.22644 0.36231-0.27173 0.58875-0.13586 0.04529-0.27173 0.09058-0.4076 0.09058 0-0.36231 0.04529-0.67933 0.13587-1.0416 1.8568-1.8568 4.1666 0.8152 4.71 2.6267zm-5.7064-3.5325c0.54346-1.2681 1.5851-2.038 2.8079-2.4003-0.8152 0.45289-1.4492 1.1322-1.9021 1.9927-0.36231 0.72462-0.54346 1.4945-0.54346 2.2644-0.22644-0.04529-0.45289-0.13587-0.63404-0.22644 0-0.54346 0.04529-1.0869 0.27173-1.6304zm-0.18116 2.4909c0.18116-0.04529 0.36231-0.09058 0.54346-0.09058 0.04529 0.63404 0.18115 1.3134 0.36231 1.9474-0.4076-0.58875-0.72462-1.1775-0.90577-1.8568zm12.59 3.1702c-0.04529-0.13587-0.27173-0.09058-0.27173 0.04529 0.04529 1.8568 0.18115 5.1176-2.4456 5.1629 1.1775-1.2681 0.95106-3.9401 0.76991-5.3441-0.54346-4.3024-3.2155-8.469-7.1556-10.371-0.13587-0.04529-0.22644 0.09058-0.09058 0.18115 2.5362 1.5851 4.5742 3.6231 5.7969 6.3404 0.67933 1.4945 1.0869 3.1249 1.1775 4.7553 0.04529 0.54346 0 1.0416-0.04529 1.5851-0.04529 0.49818-0.09058 0.99635-0.22644 1.4945-1.721 1.2228-3.0796 1.2681-4.1213 0.13587-0.13587-0.09058-0.31702 0.04529-0.18115 0.18115 0.86048 0.99635 2.3097 2.2644 3.7137 1.3587 0.04529-0.04529 0.09058-0.04529 0.13587-0.09058l0.04529 0.04529c3.0343 0.36231 3.3061-3.3966 2.8985-5.4799zm-12.047-10.19c-0.86048 0.63404-1.3134 2.1739-0.45289 3.0343 0.09058 0.09058 0.31702 0 0.27173-0.13587-0.18115-0.45289-0.36231-0.8152-0.31702-1.2681 0.04529-0.54346 0.27173-1.0416 0.63404-1.4039 0.09058-0.09058 0-0.27173-0.13587-0.22644zm-3.8495-0.67933c0.27173-1.6757 1.7663-2.5815 3.4419-2.1739 1.3134 0.36231 2.2191 1.4039 2.989 2.4909 0.09058 0.13587 0.36231 0 0.27173-0.13587-0.8152-1.5851-2.3097-2.989-4.2571-2.8985-1.4492 0.09058-2.6267 1.1775-2.5815 2.672 0 0.13587 0.13586 0.13587 0.13586 0.04529zm1.6304 0.76991c-0.58875 1.2228-0.27173 2.989 1.0416 3.5778 0.13587 0.04529 0.27173-0.09058 0.18116-0.22644-0.95106-0.8152-1.4492-1.9927-0.90577-3.2155 0.09058-0.13587-0.18116-0.31702-0.31702-0.13587zm5.6611 16.394c-0.04529 0.09058-0.09058 0.13587-0.13587 0.22644-0.04529 0.04529 0 0.09058 0 0.13586-0.54346 1.6304-1.1322 3.1702-1.8568 4.7553-0.09058 0.22644 0.18116 0.36231 0.31702 0.18116 1.0416-1.4492 1.7663-3.3966 2.038-5.2082 0-0.18116-0.31702-0.27173-0.36231-0.09058zm-3.2155-4.9818c-0.49818 0.76991-1.0869 1.4492-1.721 2.1286-0.04529 0.09058 0.04529 0.18116 0.09058 0.09058 0.67933-0.58875 1.2681-1.4039 1.7663-2.1739 0.09058-0.09058-0.04529-0.18116-0.13587-0.04529zm-25.588-6.6121c-0.76991 0.63404-1.6304 1.1322-2.5815 1.5398-0.09058 0.04529 0 0.13587 0.04529 0.13587 1.0416-0.36231 2.038-0.86048 2.8532-1.5851 0.67933 0.09058 1.4492 0.22644 2.0833 0.18116 0.04529 0 0.04529 0 0.04529-0.04529 1.8568 0.63404 3.6684 1.3587 5.3441 2.4003 0.09058 0.04529 0.13587-0.09058 0.09058-0.13587-1.6304-1.1775-3.4419-2.1286-5.4346-2.5815h-0.04529c-0.13587-0.04529-0.31702-0.09058-0.45289-0.09058h-0.04529c-0.4076-0.04529-0.8152-0.04529-1.2228-0.04529l0.27173-0.27173c-0.04529 0.09058 0 0.22644 0.09058 0.18116 0.90577-0.04529 1.7663 0 2.672 0.09058 0.18115 0 0.18115-0.22644 0.04529-0.27173-0.8152-0.31702-1.9021-0.31702-2.7626-0.04529-0.04529 0-0.04529 0.04529-0.04529 0.04529 0.13587-0.13587 0.27173-0.27173 0.4076-0.45289 0 0.04529 0.04529 0.13587 0.13587 0.13587 0.45289 0 0.90577 0 1.4039 0.04529 0 0.04529 0.04529 0.04529 0.09058 0.04529 2.038 0.09058 3.8495 0.63404 5.5252 1.8115 0.09058 0.09058 0.18116-0.09058 0.09058-0.18115-0.99635-0.76991-2.1739-1.3587-3.3966-1.6757 0.04529-0.04529 0.04529-0.18115-0.04529-0.18115-1.1775-0.36231-2.4003-0.36231-3.6231-0.22644 0.13587-0.13587 0.22644-0.27173 0.31702-0.45289 1.1322-0.18116 2.1739-0.09058 3.3061 0 0.13587 0 0.18116-0.22644 0.04529-0.27173-0.99635-0.36231-2.1286-0.31702-3.1702-0.04529 0.13587-0.22644 0.27173-0.4076 0.4076-0.63404 0.04529-0.09058-0.09058-0.22644-0.18116-0.09058-0.54346 0.90577-1.2681 1.6757-2.038 2.355h-0.13587c-0.09058 0.09058-0.13587 0.22644-0.09058 0.31702zm2.6267-2.1286c1.4039 0 2.7173 0 4.1213 0.22644 0.13586 0 0.18115-0.13587 0.04529-0.22644-0.4076-0.18116-0.86048-0.27173-1.3134-0.36231 0.13587 0 0.27173 0 0.4076-0.04529 0.09058 0 0.09058-0.13587 0-0.13587-0.86048-0.09058-1.721-0.09058-2.5815 0-0.09058 0-0.09058 0.13587 0 0.18116-0.22644 0.04529-0.49818 0.09058-0.72462 0.18115-0.13587 0-0.09058 0.18116 0.04529 0.18116zm14.583 1.8568c0.4076 0.13587 0.90577 0.13587 1.3134 0.18116 0.13587 0 0.18116-0.22644 0.04529-0.27173-0.4076-0.09058-0.90577-0.22644-1.3134-0.18116-0.13587 0.04529-0.18116 0.22644-0.04529 0.27173zm-11.367-1.2228c1.0869 0.22644 2.1739 0.54346 3.1702 0.99635 0.09058 0.04529 0.18116-0.09058 0.09058-0.18116-1.0416-0.49818-2.1286-0.8152-3.2608-0.95106-0.04529 0.04529-0.04529 0.13587 0 0.13587zm-23.188 9.4653c-0.4076-1.3134-0.04529-3.0796 1.3134-3.7137 0.09058-0.04529 0.04529-0.18116-0.09058-0.18116-1.4492 0.4076-1.9474 2.1739-1.721 3.5325 0.22644 1.4492 1.2681 2.5362 2.6267 2.9438 0.09058 0.04529 0.18116-0.13587 0.09058-0.18116-0.99635-0.45289-1.9021-1.2681-2.2191-2.4003zm6.5669 3.5778c-0.86048 0.31702-1.8115 0.31702-2.5815-0.27173-0.13587-0.09058-0.31702 0.09058-0.18115 0.18115 0.76991 0.67933 1.9474 0.86048 2.8079 0.22644 0.09058-0.04529 0.09058-0.18116-0.04529-0.13587zm3.9854-18.84c1.3134 0.22644 2.3097 1.2681 2.672 2.5362 0.04529 0.09058 0.13587 0.04529 0.13587 0-0.18115-1.4039-1.3587-2.4909-2.7626-2.672-0.09058-0.04529-0.13587 0.09058-0.04529 0.13587zm-5.5705 5.4799c-1.0416 1.5851-0.22644 4.2118 1.9474 4.1213 0.18115 0 0.27173-0.31702 0.04529-0.36231-0.72462-0.22644-1.3587-0.45289-1.8115-1.1322-0.45289-0.76991-0.4076-1.721 0.04529-2.4456 0.13587-0.22644-0.13586-0.36231-0.22644-0.18116zm4.076 11.594c-0.49818 1.9021-0.36231 3.8042 0.49818 5.5705 0.04529 0.09058 0.18115 0.04529 0.13587-0.04529-0.58875-1.7663-0.76991-3.5778-0.4076-5.4799 0.04529-0.13586-0.18116-0.22644-0.22644-0.04529zm-1.7663 1.6304c-0.04529 0.36231-0.09058 0.72462-0.09058 1.0869-0.04529 0-0.04529 0.04529-0.04529 0.09058-0.22644 2.3097 0.36231 4.71 1.9474 6.4763 0.09058 0.13587 0.31702-0.04529 0.22644-0.18116-0.72462-1.0869-1.2681-2.1286-1.5851-3.3061 0.31702 0.90577 0.8152 1.721 1.4492 2.4456 0.13587 0.13587 0.36231-0.04529 0.22644-0.18116-1.3134-1.9927-2.038-3.9401-1.9021-6.3857 0.04529-0.13587-0.22644-0.18115-0.22644-0.04529zm-0.31702 2.8532c0-0.09058-0.13587-0.04529-0.13587 0 0.13587 2.2191 1.0869 4.4836 2.8079 5.8875 0.09058 0.09058 0.22644-0.04529 0.13587-0.13587-1.4492-1.6757-2.4909-3.4419-2.8079-5.7517zm3.8948-6.6574 0.54346-0.8152c0.09058-0.13587-0.09058-0.22644-0.18116-0.09058-0.04529 0.04529-0.04529 0.09058-0.09058 0.09058 0.04529-0.09058-0.04529-0.13587-0.09058-0.18116 0.04529-0.22644 0.13587-0.45289 0.22644-0.63404 0.04529-0.09058-0.13587-0.18115-0.18116-0.09058-0.18115 0.31702-0.31702 0.67933-0.4076 1.0416-0.31702 0.45289-0.63404 0.90577-0.99635 1.3134-0.95106 0.76991-2.038 1.2228-3.3061 1.2681-2.2644 0.04529-4.0307-1.5398-4.393-3.759 0-0.13587-0.22644-0.09058-0.22644 0.04529 0.13587 2.2191 1.7663 3.8495 3.9854 4.1213 0.86048 0.09058 1.6757-0.04529 2.4456-0.31702-0.63404 0.4076-1.4039 0.72462-2.2191 0.86048-2.7626 0.36231-5.2535-1.8568-4.393-4.71 0.04529-0.09058-0.09058-0.13587-0.13586-0.04529-0.99635 2.3097 0.49818 4.71 2.8985 5.1629 1.5851 0.31702 3.0343-0.13587 4.2118-0.99635-0.13587 0.31702-0.22644 0.58875-0.27173 0.90577v-0.18116c0-0.13587-0.22644-0.13587-0.22644 0-0.18116 2.4003 0.31702 4.8459 1.6757 6.8386 0.09058 0.09058 0.22644 0 0.18116-0.09058-0.86048-1.9021-1.4039-3.759-1.5851-5.7969 0.04529 0 0.09058 0 0.09058-0.04529 0.13587-0.67933 0.27173-1.3134 0.54346-1.9474 0.22644-0.18116 0.4076-0.36231 0.63404-0.58875-0.36231 1.3587-0.31702 2.8985 0.22644 4.1666 0.09058 0.18116 0.31702 0.04529 0.31702-0.13587-0.27173-1.5851-0.36231-2.989-0.04529-4.5742v-0.04529l0.4076-0.4076c-0.09058 1.0869 0.13587 2.1739 0.76991 3.0796 0.09058 0.13587 0.31702 0.04529 0.27173-0.13587-0.49818-1.0869-0.76991-2.1739-0.67933-3.3061zm0.95106-4.0307s0-0.04529-0.04529-0.04529v-0.04529c0.99635-0.8152 1.7663-1.7663 2.355-2.8532v0.22644c0 0.09058 0.13587 0.09058 0.13587 0 0.04529-0.18115 0.04529-0.4076 0.04529-0.58875 1.2228-2.5815 1.2228-5.6611-0.18116-8.3331-0.04529-0.09058-0.27173-0.04529-0.22644 0.09058 0.99635 2.4456 1.1322 4.8912 0.4076 7.1103-0.13587-1.6304-0.8152-3.2155-1.9021-4.4383-1.0869-1.1775-2.7626-2.0833-4.1213-0.8152-0.13587 0.13587 0.04529 0.31702 0.18115 0.18115 1.8568-1.6757 3.9401 0.95106 4.71 2.355 0.54346 0.99635 0.8152 2.0833 0.90577 3.2155-0.45289 1.1775-1.1775 2.3097-2.1739 3.3061 0.09058-0.36231 0.13587-0.76991 0.18115-1.1775 0-0.13587-0.22644-0.18116-0.22644-0.04529-0.13587 0.95106-0.49818 1.7663-0.99635 2.4909 0.04529-0.27173 0.09058-0.54346 0.13587-0.76991 0.86048-1.3587 1.1775-3.0796 0.54346-4.6194-0.04529-0.09058-0.22644-0.09058-0.18116 0.04529 0.36231 1.4492 0.31702 2.8532-0.36231 4.1213 0-0.4076-0.04529-0.76991-0.13587-1.1322 0-0.8152-0.22644-1.5851-0.58875-2.3097 0.49818-0.45289 0.90577-0.99635 1.1775-1.5851 0.04529-0.09058-0.09058-0.18115-0.13587-0.09058-0.31702 0.49818-0.72462 0.99635-1.1775 1.4039-0.8152-1.3134-2.1739-2.3097-3.8948-2.4456-0.09058 0-0.09058 0.13587 0 0.13587 1.6757 0.4076 2.8985 1.3587 3.5778 2.5815 0 0-0.04529 0.04529-0.09058 0.04529-0.90577-1.0869-2.2644-1.8115-3.7137-1.9021-0.04529-0.90577 0.31702-1.8115 0.99635-2.4909 0.04529-0.04529 0-0.09058-0.04529-0.04529-0.76991 0.63404-1.2228 1.5851-1.2681 2.5362-0.49818 0-0.99635 0.04529-1.5398 0.18116-0.09058 0.04529-0.04529 0.13587 0.04529 0.13587 0.54346-0.09058 1.0416-0.13587 1.4945-0.09058 0.04529 0.72462 0.4076 1.4492 1.0869 1.9474 0.99635 0.72462 1.9927 0.63404 2.8079 0.13587 0.36231 0.49818 0.67933 1.0869 0.86048 1.6757 0.04529 0.8152-0.09058 1.6757-0.45289 2.5362-0.90577 0.67933-1.8568 1.2228-2.8985 1.4492-2.038-1.5851-3.2608-4.0307-2.8985-6.7027 0-0.13587-0.27173-0.18115-0.27173-0.04529-0.4076 2.6267 0.58875 5.3441 2.7626 6.7933-0.86048 0.09058-1.721-0.09058-2.6267-0.63404-2.4909-1.5398-2.4909-4.71-0.8152-6.8386 0.09058-0.13587-0.04529-0.31702-0.18116-0.18115-1.5851 1.4039-1.9927 3.5325-1.3134 5.3441-0.09058-0.04529-0.22644 0.04529-0.13587 0.13587 1.9927 4.5289 8.0614 4.3024 9.9635 0.45289 0.04529 0.27173 0.13587 0.54346 0.18116 0.8152 0 0-0.04529 0-0.04529 0.04529-0.49818 1.5851-0.36231 3.3514 0.63404 4.71 0.09058 0.13587 0.27173 0 0.18116-0.09058-0.67933-1.4492-0.99635-2.8532-0.72462-4.4383 0.4076 1.4492 1.1322 2.8532 2.2191 3.8042 0.13587 0.13587 0.4076-0.04529 0.31702-0.22644-1.0869-1.5398-2.038-3.0343-2.5362-5.027zm-4.6194-3.8495c-0.67933-0.4076-1.0869-1.0416-1.1775-1.721 1.3587 0.18115 2.5362 0.86048 3.3966 1.8115-0.67933 0.36231-1.4039 0.4076-2.2191-0.09058zm2.7173 0.13587s0.04529 0 0 0c0.04529 0 0.04529 0.09058 0.09058 0.09058zm0.76991 3.759c-0.04529 0.04529-0.09058 0.13587-0.13587 0.18116-0.04529 0.04529 0.04529 0.13587 0.09058 0.09058 0 0.22644-0.04529 0.49818-0.09058 0.76991-0.31702 0.36231-0.67933 0.67933-1.0869 0.95106 0.36231-0.31702 0.67933-0.67933 0.90577-1.1322 0.04529-0.04529 0-0.13587 0-0.22644 0.13587-0.27173 0.27173-0.58875 0.36231-0.90577-0.04529 0.13587-0.04529 0.22644-0.04529 0.27173zm1.721 0.63404c0.31702 1.0416 0.76991 2.3097 1.5851 3.0796 0.13587 0.13587 0.36231-0.04529 0.27173-0.18115-0.27173-0.45289-0.58875-0.90577-0.86048-1.3587-0.27173-0.49818-0.54346-1.0416-0.72462-1.5851-0.09058-0.18115-0.31702-0.13587-0.27173 0.04529zm2.5362 0.58875c-0.54346-0.58875-1.0416-1.2228-1.6757-1.6757-0.13587-0.09058-0.31702 0.09058-0.22644 0.22644 0.36231 0.63404 0.95106 1.1775 1.4039 1.721 0.54346 0.58875 1.0416 1.2681 1.6757 1.7663 0.18116 0.13587 0.45289-0.04529 0.31702-0.22644-0.4076-0.63404-0.99635-1.2228-1.4945-1.8115zm-1.2681-2.1286c-0.04529 0-0.04529 0 0 0 2.6267-2.3097 5.6158-8.2425 2.038-10.598-0.09058-0.04529-0.22644 0.09058-0.13586 0.18116 3.3061 3.0343-0.22644 8.469-2.7173 10.643-0.13587 0.13587 0.04529 0.36231 0.18116 0.27173l0.4076-0.27173c0 0.04529 0.04529 0.09058 0.09058 0.09058 1.1775 0.72462 2.1286 1.6757 3.0796 2.672 0.09058 0.13587 0.31702-0.04529 0.22644-0.18115-0.76991-1.3134-1.9021-2.2191-3.1702-2.8079zm1.9474-0.99635c-0.09058 0-0.09058 0.18116 0.04529 0.18116 1.3134-0.04529 2.355 0.27173 3.5325 0.8152 0.18115 0.09058 0.27173-0.13587 0.13587-0.22644-1.0416-0.8152-2.4909-0.99635-3.7137-0.76991zm5.1176 0.22644c1.1322 0.45289 2.1739 0.99635 3.2155 1.6757 0.04529 0.04529 0.09058-0.04529 0.04529-0.09058-0.99635-0.76991-2.0833-1.3134-3.2608-1.721 0-0.04529-0.04529-0.04529-0.04529-0.09058-1.0869-0.67933-2.4456-0.90577-3.6684-0.95106-0.13587 0-0.18116 0.22644-0.04529 0.22644 1.2681 0.18116 2.4003 0.58875 3.5778 0.95106 0.09058 0.04529 0.13587 0 0.18115 0zm-1.3134 1.8115c-1.3134-1.0869-3.0343-1.5851-4.71-1.5851-0.13586 0-0.13586 0.22644 0 0.22644h0.04529c-0.04529 0.04529-0.04529 0.13587 0.04529 0.18115 1.1775 0.45289 2.4003 0.99635 3.6231 1.3587 0.09058 0.04529 0.18115-0.13587 0.09058-0.18116-1.1322-0.49818-2.355-0.95106-3.5325-1.3587 1.8568 0.18115 3.3966 0.90577 4.8912 1.9927 0.04529 0.04529 0.09058 0 0.13587 0 1.4945 0.86048 3.1249 1.5851 4.7553 2.1286 0.09058 0.04529 0.18116-0.13587 0.09058-0.18116-1.9474-0.8152-3.7137-1.6304-5.4346-2.5815zm-2.7626-0.18116c-0.13587-0.04529-0.22644 0.09058-0.09058 0.18116 1.4945 0.99635 3.1249 1.8115 4.7553 2.6267 0.09058 0.04529 0.18115-0.09058 0.09058-0.13587-1.5851-0.90577-3.1249-1.9021-4.7553-2.672zm0.31702 1.3134c-0.13587-0.04529-0.27173 0.09058-0.13587 0.18115 0.72462 0.67933 1.6757 1.1322 2.4909 1.6757 0.09058 0.04529 0.18115-0.09058 0.09058-0.18115-0.76991-0.54346-1.5398-1.2228-2.4456-1.6757zm18.704-1.8568c-2.5815 0.49818-5.7064 1.6757-7.7444 3.3966-0.09058 0.04529 0 0.13587 0.09058 0.09058 1.2681-0.54346 2.4456-1.3587 3.759-1.9021 1.2681-0.54346 2.6267-0.95106 3.9854-1.3587 0.13587-0.04529 0.04529-0.27173-0.09058-0.22644zm-7.6085 1.6757c2.0833-1.0416 4.076-1.6304 6.3404-1.9474 0.09058 0 0.09058-0.18116-0.04529-0.18116-2.2644 0-4.5742 0.72462-6.431 1.9927-0.04529 0.04529 0.04529 0.22644 0.13587 0.13587zm0.04529-1.2228c1.7663-0.86048 3.5325-1.3134 5.4346-1.6304 0.09058 0 0.09058-0.18115-0.04529-0.18115-1.9474 0-3.8495 0.67933-5.5252 1.6757-0.04529 0.04529 0.04529 0.18116 0.13587 0.13587zm0.36231-1.8115c1.721-0.58875 3.4419-0.95106 5.1629-1.3587 0.09058 0 0.09058-0.18115-0.04529-0.18115-1.7663 0.22644-3.5325 0.76991-5.1629 1.4492-0.04529 0.04529 0 0.09058 0.04529 0.09058zm9.7823 2.5815c-1.9021 0.86048-3.8042 1.7663-5.7517 2.4909-0.09058 0.04529-0.09058 0.22644 0.04529 0.18116 2.038-0.58875 4.0307-1.4039 5.8422-2.4909 0.09058-0.09058-0.04529-0.27173-0.13587-0.18116zm1.0869 0.72462c-1.3134 0.67933-2.6267 1.4945-3.9854 2.1739-0.13587 0.04529 0 0.22644 0.09058 0.18115 1.4039-0.58875 2.7626-1.2228 3.9401-2.1739 0.18116-0.09058 0.09058-0.22644-0.04529-0.18116zm0.45289 1.4945c-0.8152 0.54346-1.6304 1.1322-2.4456 1.6757-0.13586 0.09058 0 0.36231 0.13587 0.22644 0.8152-0.58875 1.6304-1.1775 2.4003-1.8115 0.09058 0 0-0.13587-0.09058-0.09058zm-14.674-2.1739c-0.09058-0.04529-0.18115 0.13587-0.09058 0.18115 0.49818 0.4076 1.1322 0.8152 1.721 1.1322 0.22644 0.09058 0.36231-0.18115 0.18116-0.31702-0.58875-0.4076-1.1775-0.76991-1.8115-0.99635zm0.49818 1.4945c-0.09058-0.04529-0.13587 0.09058-0.04529 0.13587 0.31702 0.22644 0.76991 0.4076 1.0869 0.63404 0.09058 0.04529 0.18115-0.09058 0.09058-0.13587-0.31702-0.27173-0.72462-0.49818-1.1322-0.63404zm0.18116-2.355c-0.09058 0-0.18116 0.09058-0.09058 0.18116 0.31702 0.36231 0.8152 0.54346 1.2228 0.76991 0.13587 0.09058 0.22644-0.13587 0.13587-0.18116-0.4076-0.27173-0.8152-0.63404-1.2681-0.76991zm0.4076-0.09058c0.18116 0.13587 0.4076 0.22644 0.58875 0.31702 0.18115 0.09058 0.31702-0.18116 0.13587-0.27173-0.22644-0.09058-0.4076-0.22644-0.63404-0.22644-0.04529 0-0.18116 0.09058-0.09058 0.18115zm0.58875-0.95106c0.09058 0.09058 0.27173-0.04529 0.18115-0.13587-0.09058-0.13587-0.18115-0.27173-0.27173-0.36231-0.09058-0.04529-0.22644 0-0.18116 0.09058 0.09058 0.18116 0.18116 0.27173 0.27173 0.4076zm0-1.0869c-0.09058-0.09058-0.18116 0.04529-0.13587 0.13587 0.09058 0.09058 0.13587 0.18116 0.22644 0.27173 0.09058 0.09058 0.27173-0.04529 0.18116-0.18115-0.09058-0.04529-0.18116-0.13587-0.27173-0.22644zm0.04529-0.8152-0.13586-0.13587c-0.04529-0.04529-0.13587 0-0.09058 0.04529 0 0.09058 0 0.13587 0.04529 0.22644 0 0.18115 0.36231 0.04529 0.18115-0.13587z" fill="#5c3d2e" stroke-width="1.0124"/> <path d="m44.666 64.669c0.04529-0.09058-0.09058-0.22644-0.13586-0.13587-0.99635 1.0869-2.4909 1.6757-3.9401 1.1775-1.6304-0.54346-2.4003-2.4456-2.038-4.0307 0.04529-0.18116-0.22644-0.22644-0.27173-0.09058-1.1322 3.8948 4.1666 6.6121 6.3857 3.0796zm-1.1775 3.6684c0.09058-0.09058-0.04529-0.27173-0.13587-0.18115-1.5851 1.0416-4.2118 0.13587-5.027-1.5398-0.04529-0.09058-0.22644-0.04529-0.18115 0.09058 0.67933 1.7663 3.8042 3.1249 5.3441 1.6304zm0.72462-0.04529c0.09058-0.09058-0.04529-0.27173-0.13587-0.18116-1.3134 0.8152-2.7173 1.6304-4.2118 0.72462-0.09058-0.04529-0.18116 0.09058-0.09058 0.18116 1.4492 0.99635 3.2608 0.4076 4.4383-0.72462zm0 0.86048c0.04529-0.09058-0.09058-0.22644-0.18115-0.13587-0.67933 0.8152-1.5398 1.3134-2.6267 0.99635-0.13587-0.04529-0.18116 0.13587-0.04529 0.18115 1.0416 0.31702 2.4003-0.04529 2.8532-1.0416zm-1.0416-10.869c1.5398-0.67933 2.8079 0.54346 3.1702 1.9474 0.27173 0.95106 0.4076 2.6267-0.31702 3.3966-0.09058 0.09058 0.04529 0.27173 0.13586 0.18116 0.58875-0.36231 0.76991-1.1775 0.76991-2.038 1.0869-1.8568-0.4076-3.6231-1.9021-4.6647-0.09058-0.09058-0.22644 0.09058-0.09058 0.18116 1.3134 0.99635 2.4456 2.4003 1.9474 4.0307-0.04529-0.72462-0.27173-1.4492-0.45289-1.9021-0.58875-1.3587-2.038-2.1286-3.3966-1.4039-0.09058 0.13587 0 0.31702 0.13587 0.27173zm1.3134-1.8568c3.1702 0.95106 4.393 4.0307 3.3061 7.0197-0.04529 0.13587 0.13587 0.22644 0.22644 0.09058 1.5398-3.0343-0.31702-6.4763-3.4872-7.2915-0.13587-0.04529-0.18116 0.13587-0.04529 0.18116zm3.2608-3.0343c1.5398 0.63404 1.7663 2.2644 1.9021 3.759 0 0.13587 0.18115 0.13587 0.22644 0 0.13587-1.6304-0.4076-3.4419-2.0833-3.9854-0.13586-0.04529-0.18115 0.18115-0.04529 0.22644zm-3.1249 0.49818c1.1322-0.49818 1.9474 0.36231 2.7173 0.99635 0.09058 0.09058 0.27173 0 0.18116-0.13587-0.67933-0.95106-1.9021-1.6304-3.0343-1.0416-0.09058 0.04529 0 0.22644 0.13587 0.18116zm7.4726-0.49818c-0.04529-0.09058-0.13587 0-0.09058 0.04529 2.2191 3.8495 0.8152 8.2425-2.989 10.326-0.09058 0.04529 0 0.13587 0.09058 0.13587 4.076-1.8568 5.3441-6.6574 2.989-10.507zm0.58875 7.2915c-0.04529 0.09058 0.09058 0.18115 0.13587 0.09058 0.86048-0.86048 1.6304-1.9927 1.4039-3.2608 0-0.09058-0.13587-0.09058-0.13587 0 0.09058 1.3134-0.67933 2.2191-1.4039 3.1702zm-10.19 2.1286c0.09058 0 0.13587-0.09058 0.04529-0.13586-0.99635-0.49818-2.1739-1.3587-1.7663-2.6267 0.04529-0.13587-0.13587-0.18116-0.18116-0.04529-0.45289 1.3134 0.58875 2.5362 1.9021 2.8079zm-0.49818 8.2425c-2.038 0.22644-4.9365-0.31702-4.8912-2.9438 0-0.09058-0.13587-0.09058-0.13587 0-0.18116 2.8079 2.8532 3.6231 5.0723 3.1249 0.09058-0.04529 0.09058-0.18115-0.04529-0.18115zm6.6574-5.5252c-0.09058-0.09058-0.22644 0-0.18116 0.09058 0.63404 1.1322 1.3134 2.355 2.3097 3.2155 0.09058 0.09058 0.22644 0 0.13586-0.13587-0.72462-1.0416-1.5851-2.038-2.2644-3.1702zm0.18115 1.4039c-0.04529-0.09058-0.22644 0-0.13587 0.09058 0.58875 0.95106 1.1322 1.9021 1.8115 2.7626 0.04529 0.09058 0.18115 0 0.13587-0.09058-0.54346-0.95106-1.1775-1.8568-1.8115-2.7626zm-1.2681 1.4039c-0.09058-0.09058-0.22644 0-0.13587 0.09058 0.54346 0.90577 0.99635 1.9474 1.6757 2.7626 0.09058 0.09058 0.22644-0.04529 0.18116-0.13587-0.45289-0.95106-1.1322-1.8568-1.721-2.7173zm-1.3134 1.5851c0.22644 0.95106 0.58875 1.9927 1.1775 2.7626 0.09058 0.09058 0.27173 0.04529 0.22644-0.09058-0.36231-0.90577-0.86048-1.7663-1.2228-2.7173-0.04529-0.09058-0.18115-0.04529-0.18115 0.04529zm-0.18116 0.95106c0.22644 0.8152 0.49818 1.6757 0.95106 2.355 0.04529 0.09058 0.22644 0.04529 0.18115-0.09058-0.27173-0.8152-0.67933-1.5398-0.95106-2.355-0.04529-0.09058-0.22644 0-0.18116 0.09058zm-0.67933 1.3134c0.13587 1.0869 0.27173 2.3097 0.72462 3.3061 0.04529 0.09058 0.22644 0.04529 0.18115-0.09058-0.22644-1.0869-0.58875-2.1286-0.76991-3.2608 0-0.09058-0.18116-0.04529-0.13587 0.04529zm-0.67933 1.3134c0.18116 0.86048 0.36231 1.7663 0.8152 2.4909 0.04529 0.09058 0.22644 0.04529 0.22644-0.09058-0.27173-0.8152-0.63404-1.6304-0.86048-2.4456-0.04529-0.13586-0.18116-0.09058-0.18116 0.04529zm-0.27173 1.8115c0-0.09058-0.18115-0.04529-0.18115 0.04529 0.09058 0.72462 0.27173 1.5851 0.72462 2.1739 0.04529 0.09058 0.13587 0 0.13587-0.09058-0.09058-0.36231-0.31702-0.67933-0.4076-1.0416zm-0.36231 2.355c-0.04529-0.09058-0.18115-0.04529-0.13587 0.04529 0.13587 0.49818 0.36231 1.0416 0.76991 1.4492 0.04529 0.04529 0.13587 0 0.09058-0.09058-0.27173-0.49818-0.54346-0.90577-0.72462-1.4039zm11.594-12.409c-0.13586-0.04529-0.18115 0.13587-0.04529 0.18116 1.4039 0.54346 2.7626 1.3134 4.1666 1.8115 0.09058 0.04529 0.13586-0.09058 0.09058-0.18116-1.2228-0.8152-2.8079-1.3134-4.2118-1.8115zm1.8115-0.4076c-0.09058-0.04529-0.22644 0.09058-0.09058 0.18116 0.58875 0.31702 1.2228 0.67933 1.8115 1.0416-0.99635-0.54346-2.1286-0.95106-3.2155-1.4039-0.09058-0.04529-0.18116 0.13587-0.09058 0.22644 1.1322 0.49818 2.2644 1.1322 3.4419 1.4945 0.09058 0.04529 0.18116-0.09058 0.09058-0.18116 0.31702 0.18116 0.67933 0.36231 0.99635 0.49818 0.09058 0.04529 0.27173-0.09058 0.13587-0.18115-0.86048-0.76991-1.9927-1.2228-3.0796-1.6757zm-0.18116-1.6757c-0.13586-0.04529-0.27173 0.13587-0.13586 0.22644 1.2681 0.58875 2.4456 1.3587 3.6684 2.038 0.09058 0.04529 0.18116-0.09058 0.09058-0.13587-1.0416-0.90577-2.3097-1.5398-3.6231-2.1286zm1.1322-0.4076c-0.09058-0.04529-0.18115 0.09058-0.09058 0.13587 0.90577 0.54346 1.8115 1.1322 2.7626 1.5851 0.09058 0.04529 0.13587-0.04529 0.04529-0.09058-0.86048-0.63404-1.8115-1.0869-2.7173-1.6304zm0.8152 0.04529c0.58875 0.27173 1.1322 0.63404 1.6757 0.99635 0.04529 0.04529 0.09058-0.04529 0.04529-0.09058-0.49818-0.45289-1.0869-0.76991-1.6757-1.0416-0.09058 0-0.13587 0.09058-0.04529 0.13586zm1.7663-0.22644c-0.72462-0.45289-1.5398-0.76991-2.355-1.0416-0.09058-0.04529-0.13587 0.13587-0.04529 0.13587 0.8152 0.31702 1.5398 0.67933 2.355 0.99635 0.09058 0.09058 0.13587-0.04529 0.04529-0.09058zm-1.8568-1.9021c-0.09058 0-0.13587 0.09058-0.04529 0.13586 0.8152 0.22644 1.4492 0.67933 2.1739 1.0869 0.09058 0.04529 0.18115-0.09058 0.13586-0.13587-0.63404-0.58875-1.4945-0.90577-2.2644-1.0869zm1.6757 0.18115c0.04529 0 0.09058-0.04529 0.04529-0.09058-0.4076-0.22644-0.90577-0.4076-1.3587-0.54346-0.09058 0-0.09058 0.09058-0.04529 0.09058 0.49818 0.18116 0.90577 0.4076 1.3587 0.54346zm-2.5362-1.5851c-0.13586 0-0.18115 0.13587-0.04529 0.18115 1.1775 0.22644 2.2644 0.63404 3.3514 1.0869 0.09058 0.04529 0.13587-0.04529 0.04529-0.09058-1.0416-0.63404-2.1739-0.95106-3.3514-1.1775zm1.3587 0.18115c0.31702 0.09058 0.58875 0.18116 0.86048 0.31702 0.09058 0.04529 0.13587-0.09058 0.09058-0.13587-0.27173-0.18116-0.54346-0.27173-0.86048-0.36231-0.18116-0.04529-0.22644 0.13587-0.09058 0.18115zm-2.4456 7.9255c-0.99635-0.49818-2.038-0.95106-3.0343-1.4492-0.13586-0.09058-0.27173 0.13586-0.13586 0.22644 0.99635 0.54346 2.038 1.0416 3.1249 1.4039 0.09058 0 0.13586-0.13586 0.04529-0.18115zm-5.7969-2.0833c-0.09058-0.04529-0.18115 0.09058-0.09058 0.13587 0.76991 0.67933 1.6304 1.2681 2.5815 1.6757 0.13587 0.04529 0.22644-0.09058 0.09058-0.18115-0.90577-0.54346-1.7663-1.0416-2.5815-1.6304zm7.3368 3.1249c-1.1322-0.18116-2.4003 0.22644-3.0796 1.1775-1.0416 1.4039-0.04529 2.8079-0.04529 4.3024 0 0.09058 0.13587 0.09058 0.13587 0 0.13587-1.0416-0.4076-1.9927-0.27173-3.0343 0.22644-1.721 1.7663-2.1739 3.2155-2.3097 0.09058 0.04529 0.13587-0.13587 0.04529-0.13587zm9.3747-3.9401c-2.0833 0.67933-4.2118 1.7663-5.6158 3.4872-0.04529 0.09058 0.04529 0.18116 0.09058 0.09058 1.6304-1.6304 3.6231-2.355 5.6158-3.3966 0.13587-0.04529 0.04529-0.22644-0.09058-0.18116zm-4.9818 1.1775c1.0416-0.76991 2.2644-1.0869 3.4419-1.5851 0.13587-0.04529 0.09058-0.22644-0.04529-0.22644-1.2681 0.27173-2.5362 0.76991-3.4872 1.6757-0.09058 0.09058 0 0.18115 0.09058 0.13587zm3.8495-3.2608c-1.1775 0.27173-2.3097 0.8152-3.3514 1.3587-0.09058 0.04529 0 0.13587 0.09058 0.09058 1.0869-0.49818 2.2191-0.86048 3.3061-1.3134 0.09058 0 0.04529-0.13587-0.04529-0.13587zm0.09058-0.67933c-1.3587 0.13587-2.672 0.72462-3.8042 1.5851-0.04529 0.04529 0 0.13586 0.04529 0.09058 1.1775-0.72462 2.4003-1.1775 3.759-1.4945 0.09058-0.04529 0.09058-0.18116 0-0.18116zm-3.6231 0.58875c1.0869-0.58875 2.2191-0.95106 3.3514-1.3134 0.09058-0.04529 0.09058-0.18116-0.04529-0.18116-1.1775 0.22644-2.355 0.76991-3.3514 1.4039-0.04529 0.04529 0 0.09058 0.04529 0.09058zm2.672-1.9927c-1.1775 0.27173-2.2191 0.8152-3.1702 1.5398-0.04529 0.04529 0 0.13587 0.04529 0.09058 0.99635-0.63404 2.038-1.0869 3.1249-1.4492 0.13587-0.09058 0.09058-0.22644 0-0.18116zm-3.2155 0.86048c1.3134-0.72462 2.672-1.1322 4.1213-1.4945 0.04529 0 0.04529-0.13586 0-0.13586-1.4492 0.09058-2.8985 0.76991-4.1213 1.5851-0.09058 0-0.04529 0.04529 0 0.04529zm0.22644-1.0416c1.2681-0.54346 2.5815-0.76991 3.9401-0.90577 0.09058 0 0.09058-0.13587 0-0.13587-1.4039 0-2.7626 0.36231-3.9854 0.95106-0.04529 0.04529 0 0.09058 0.04529 0.09058zm9.2389 4.8006c-2.5362 0.58875-5.0723 1.4945-7.4726 2.4456-0.09058 0.04529-0.04529 0.18115 0.04529 0.18115 2.5362-0.63404 5.1176-1.3134 7.5179-2.2644 0.22644-0.09058 0.13587-0.4076-0.09058-0.36231zm1.1322 0.13587c-2.3097 0.99635-4.5289 1.8568-6.9744 2.4909-0.09058 0.04529-0.09058 0.18116 0.04529 0.18116 2.4456-0.27173 5.027-1.0869 7.1103-2.4456 0.09058-0.09058-0.04529-0.27173-0.18115-0.22644zm1.5851 0.8152c-1.6757 0.95106-3.3061 1.7663-5.2082 2.1739-0.13587 0.04529-0.09058 0.27173 0.09058 0.22644 1.9021-0.31702 3.759-0.99635 5.2535-2.2191 0.09058-0.09058 0-0.22644-0.13587-0.18115zm0.22644 1.1775c-1.1322 0.63404-2.1286 1.2681-3.3514 1.721-0.13587 0.04529-0.09058 0.27173 0.04529 0.22644 1.2228-0.36231 2.4909-0.86048 3.4419-1.721 0.09058-0.13587-0.04529-0.31702-0.13587-0.22644zm0.8152 1.1775c0.09058-0.09058-0.04529-0.22644-0.13587-0.18115-0.45289 0.22644-0.8152 0.58875-1.2228 0.90577-0.4076 0.31702-0.8152 0.58875-1.2681 0.86048-0.09058 0.09058 0 0.22644 0.09058 0.18116 0.86048-0.45289 1.8568-0.99635 2.5362-1.7663zm1.721-0.04529c0.09058-0.09058-0.04529-0.22644-0.13587-0.13586-1.0869 0.90577-2.1286 1.7663-3.3514 2.4003-0.13587 0.09058 0 0.31702 0.13587 0.22644 1.2681-0.58875 2.4909-1.4039 3.3514-2.4909zm0.4076 1.4945c0.04529-0.09058-0.04529-0.22644-0.18116-0.13586-0.76991 0.54346-1.4492 1.2681-2.2191 1.8568-0.13587 0.09058 0 0.31702 0.13587 0.22644 0.8152-0.58875 1.721-1.1775 2.2644-1.9474zm0.36231 1.0416c0.09058-0.09058-0.09058-0.18115-0.18116-0.13587-0.8152 0.63404-1.4945 1.4945-2.2191 2.2644-0.09058 0.09058 0.04529 0.22644 0.13587 0.13587 0.76991-0.72462 1.6304-1.4492 2.2644-2.2644zm0.27173 0.90577c0.04529-0.09058-0.04529-0.22644-0.13587-0.13587-0.67933 0.49818-1.2681 1.2228-1.8568 1.8568-0.13587 0.13587 0.09058 0.31702 0.18115 0.18116 0.58875-0.58875 1.3134-1.1775 1.8115-1.9021zm0.22644 0.99635c0.04529-0.09058-0.09058-0.18116-0.13587-0.09058-0.49818 0.4076-0.90577 1.0416-1.2681 1.5398-0.04529 0.09058 0.09058 0.18116 0.18116 0.09058 0.22644-0.27173 0.45289-0.58875 0.67933-0.86048 0.13587-0.22644 0.36231-0.45289 0.54346-0.67933zm0.13587 2.7626c-0.18116 0.13587-0.31702 0.36231-0.45289 0.54346-0.13586 0.18115-0.27173 0.36231-0.45289 0.54346-0.09058 0.13587 0.09058 0.31702 0.18116 0.18116 0.13587-0.18116 0.31702-0.4076 0.45289-0.58875 0.13587-0.18115 0.31702-0.36231 0.4076-0.54346 0.04529-0.13587-0.04529-0.22644-0.13587-0.13587zm0.72462 0.90577c-0.22644 0.4076-0.45289 0.86048-0.72462 1.2228-0.13587 0.18115 0.18115 0.31702 0.27173 0.13587 0.27173-0.4076 0.49818-0.86048 0.63404-1.3134 0-0.09058-0.13587-0.13587-0.18116-0.04529zm-4.4836-15.443c0.04529-0.04529 0.04529-0.09058 0.04529-0.18115-0.90577-1.6304-1.4039-3.3061-0.09058-4.8912 0.13587-0.13587-0.09058-0.36231-0.22644-0.22644-0.8152 0.76991-1.1322 1.8568-0.99635 2.8532-0.13587-0.49818-0.18115-1.0416 0-1.6757 0.04529-0.09058-0.13587-0.13587-0.13587-0.04529-0.54346 1.5398 0.13587 3.1249 1.2681 4.2118 0.04529 0.18115 0.22644 0.04529 0.13587-0.04529zm-0.45289 0.86048c0.09058 0.04529 0.18115-0.09058 0.09058-0.18115-0.49818-0.54346-1.0416-0.99635-1.4039-1.721-0.4076-0.8152-0.63404-1.721-0.63404-2.6267 0-0.13587-0.18115-0.13587-0.18115 0-0.09058 1.4945 0.45289 3.9854 2.1286 4.5289zm-0.09058 0.31702c0.13587 0 0.13587-0.13587 0.04529-0.18116-1.5398-0.63404-2.7173-2.9438-2.355-4.5742 0.04529-0.13587-0.13587-0.18116-0.18116-0.04529-0.45289 1.5851 0.54346 4.8006 2.4909 4.8006zm-2.4456-0.67933c0.09058 0.04529 0.18115-0.09058 0.09058-0.13587-0.54346-0.63404-1.0416-1.2228-1.4039-1.9927-0.04529-0.13587-0.27173 0-0.22644 0.13587 0.36231 0.72462 0.86048 1.5398 1.5398 1.9927zm8.9219 5.3441c0.13587 0.09058 0.27173-0.09058 0.18116-0.22644-1.4945-1.3587-2.1739-3.0796-1.4492-5.0723 0.04529-0.18116-0.22644-0.27173-0.27173-0.09058-0.72462 1.9021-0.27173 4.2118 1.5398 5.3893zm1.9474 5.1176c-2.4909-0.4076-4.076-2.5362-3.5325-5.0723 0.04529-0.13587-0.18115-0.18116-0.22644-0.04529-0.54346 2.4456 0.86048 5.4799 3.7137 5.3893 0.13587 0 0.18116-0.27173 0.04529-0.27173zm0.8152-0.72462c-1.721 0.54346-3.4419-2.1739-3.3061-3.6684 0-0.09058-0.18116-0.13587-0.18116-0.04529-0.18115 1.1775 0.4076 2.1739 1.0869 3.0796 0.58875 0.72462 1.5851 1.5851 2.4909 0.90577 0.18115-0.09058 0.09058-0.31702-0.09058-0.27173zm-1.1775-10.054c-0.18116-0.18116-0.31702-0.31702-0.54346-0.45289-0.13587-0.09058-0.27173 0.13587-0.18115 0.22644 2.1286 1.6757 3.1249 6.3404 1.1775 8.3784-0.09058-0.09058-0.18115-0.13586-0.27173-0.22644-0.4076-0.4076-0.72462-0.90577-0.95106-1.4492-0.09058-0.18116-0.36231-0.09058-0.27173 0.09058 0.36231 0.99635 1.2228 2.2191 2.3097 2.5362 0.13587 0.04529 0.27173-0.13587 0.13587-0.22644-0.22644-0.18116-0.49818-0.36231-0.72462-0.54346 1.3134-0.99635 1.4492-2.5815 1.1322-4.1213-0.18115-0.86048-0.4076-1.8115-0.8152-2.672 0.04529 0 0.04529-0.04529 0.04529-0.09058-0.18115-0.54346-0.49818-0.99635-0.86048-1.4039-0.09058-0.09058-0.13587-0.09058-0.18115-0.04529zm-2.2644-6.2045c2.2191 0.72462 3.0796 4.0307 0.95106 5.3441-0.09058 0.04529-0.04529 0.22644 0.09058 0.18116 2.8079-0.90577 1.2228-5.0723-0.99635-5.6611-0.09058-0.04529-0.13587 0.09058-0.04529 0.13587zm-2.2644 4.1666c0.13587 0.09058 0.31702-0.09058 0.22644-0.22644-0.22644-0.31702-0.49818-0.58875-0.67933-0.99635-0.13587-0.4076-0.18116-0.86048-0.09058-1.2681 0.04529-0.22644-0.31702-0.31702-0.36231-0.09058-0.13587 0.90577 0.09058 2.0833 0.90577 2.5815zm9.0124 4.1666c-0.09058-0.04529-0.18116-0.13587-0.27173-0.18116-0.27173-1.4945-1.3587-2.8985-2.355-3.9854-0.09058-0.13587-0.27173 0.04529-0.18116 0.18115 0.54346 0.67933 0.99635 1.4039 1.4039 2.1286 0.27173 0.49818 0.45289 0.99635 0.67933 1.4945-0.04529 0-0.09058-0.04529-0.18116-0.04529-0.13587-0.04529-0.22644 0.18115-0.09058 0.22644 0.18116 0.09058 0.31702 0.18116 0.45289 0.27173 0.04529 0.04529 0.04529 0.13587 0.09058 0.18115 0.04529 0.09058 0.13587 0.04529 0.18115 0 2.5362 1.8568 1.721 6.2045-0.8152 7.8802-0.13587 0.09058-0.04529 0.31702 0.13587 0.22644 2.8079-1.2228 3.5778-6.0687 1.2681-8.0614v-0.09058c-0.36231-2.4456-1.4492-4.9818-3.5325-6.3857-0.13587-0.09058-0.22644 0.13587-0.13587 0.22644 2.1286 1.4945 2.6267 3.7137 3.3514 5.9328zm-3.0343 7.7444c1.0416 0.18115 1.7663-0.63404 2.1739-1.4945 0.54346-1.2228 0.45289-2.5362-0.04529-3.759-0.09058-0.18116-0.4076-0.04529-0.31702 0.13587 0.63404 1.5851 0.4076 4.6194-1.7663 4.8459-0.13587 0-0.18116 0.27173-0.04529 0.27173zm1.1322 3.3966c-0.45289 0.31702-0.99635 0.45289-1.4945 0.09058-0.09058-0.09058-0.22644 0.04529-0.13587 0.13587 0.49818 0.4076 1.3134 0.45289 1.721-0.09058 0.09058-0.09058 0-0.18115-0.09058-0.13586zm0.76991-1.4039c-0.31702 0.22644-0.58875 0.49818-0.99635 0.63404s-0.86048 0.18115-1.2681 0.04529c-0.18115-0.04529-0.27173 0.22644-0.09058 0.27173 0.8152 0.31702 2.1739 0.18116 2.5815-0.72462 0.09058-0.13587-0.09058-0.36231-0.22644-0.22644zm3.0796-2.8079c-0.18115 0.4076-0.31702 0.8152-0.58875 1.1775-0.27173 0.4076-0.76991 0.95106-1.3134 0.76991-0.18116-0.04529-0.27173 0.22644-0.13587 0.27173 1.1775 0.49818 2.2644-1.1775 2.3097-2.1739 0.04529-0.13587-0.18115-0.18116-0.27173-0.04529zm-2.9438-4.8006c0.13587-1.8115-0.49818-3.6231-1.5398-5.1176-0.13587-0.18115-0.4076 0-0.27173 0.18116 0.99635 1.5398 1.4039 3.1249 1.6304 4.9365-0.04529 0.13587 0.18116 0.13587 0.18116 0z" fill="#0ff" stroke-width="1.0124"/> <g transform="matrix(.45289 0 0 .45289 17.448 41.481)" stroke-width="1.7526"> <g stroke-width="2.2355"> <path d="m66.94 91.33c-0.33 0.66-0.61 1.5-0.66 2.96s0.11 3.1 0.57 4.77 0.18 2.84 4.5 4.81 10.1 3.57 13.81 4.32 5.88-1.71 7.31-3.53 3.82-6.05 4.1-9.34-2.16-3.71-4.56-4.32-9.07-1.88-14.23-1.69c-5.17 0.19-8.5 0.42-9.44 0.75-0.93 0.33-1.4 1.27-1.4 1.27z" fill="url(#b)"/> <path d="m86.53 108.45c-0.44 0-0.9-0.05-1.39-0.15-3.61-0.73-9.4-2.3-13.83-4.33-3.83-1.75-4.1-2.93-4.42-4.29-0.04-0.19-0.09-0.39-0.15-0.6-0.43-1.54-0.63-3.2-0.57-4.8 0.05-1.58 0.38-2.44 0.67-3.01 0.02-0.04 0.5-0.98 1.47-1.33 0.9-0.31 3.91-0.56 9.48-0.76 5.44-0.2 12.29 1.19 14.27 1.69l0.38 0.1c2.23 0.56 4.54 1.14 4.26 4.35-0.27 3.19-2.58 7.42-4.13 9.4-1.54 1.97-3.33 3.73-6.04 3.73zm-19.49-17.07c-0.27 0.55-0.6 1.38-0.65 2.91-0.05 1.58 0.14 3.22 0.57 4.74 0.06 0.21 0.1 0.41 0.15 0.61 0.31 1.36 0.56 2.43 4.29 4.13 4.42 2.02 10.19 3.58 13.79 4.31 3.39 0.69 5.46-1.27 7.2-3.49 1.53-1.96 3.81-6.13 4.08-9.28 0.26-3.02-1.85-3.54-4.09-4.1l-0.38-0.1c-1.96-0.5-8.78-1.88-14.2-1.69-5.46 0.2-8.54 0.44-9.41 0.74-0.89 0.32-1.34 1.21-1.35 1.22z" fill="#fff"/> <path d="m133.06 91.33c0.33 0.66 0.61 1.5 0.66 2.96s-0.11 3.1-0.57 4.77-0.18 2.84-4.5 4.81-10.1 3.57-13.81 4.32-5.88-1.71-7.31-3.53-3.82-6.05-4.1-9.34 2.16-3.71 4.56-4.32 9.07-1.88 14.23-1.69c5.17 0.19 8.5 0.42 9.44 0.75 0.93 0.33 1.4 1.27 1.4 1.27z" fill="url(#a)"/> <path d="m107.43 104.73c-1.55-1.98-3.85-6.21-4.13-9.4-0.28-3.21 2.03-3.79 4.26-4.35l0.38-0.1c1.97-0.5 8.83-1.89 14.27-1.69 5.56 0.2 8.58 0.44 9.48 0.76 0.97 0.34 1.45 1.29 1.47 1.33 0.29 0.57 0.62 1.43 0.67 3.01 0.05 1.61-0.15 3.27-0.57 4.8-0.06 0.21-0.1 0.41-0.15 0.6-0.31 1.36-0.59 2.54-4.42 4.29-4.44 2.03-10.23 3.6-13.83 4.33-0.49 0.1-0.95 0.15-1.39 0.15-2.71-0.01-4.51-1.77-6.04-3.73zm25.52-13.35c0-0.01-0.46-0.9-1.34-1.21-0.86-0.3-3.94-0.55-9.41-0.74-5.42-0.2-12.24 1.19-14.2 1.69l-0.38 0.1c-2.23 0.56-4.35 1.09-4.09 4.1 0.27 3.15 2.55 7.32 4.08 9.28 1.74 2.22 3.81 4.18 7.2 3.49 3.6-0.73 9.37-2.3 13.78-4.31 3.73-1.7 3.98-2.77 4.29-4.13 0.05-0.2 0.09-0.4 0.15-0.61 0.42-1.51 0.62-3.15 0.57-4.74-0.05-1.54-0.37-2.37-0.65-2.92z" fill="#fff"/> <path d="m135.93 89.65c-0.84-1.23-14.1-1.57-18.22-1.23-7.25 0.6-13.86 2.76-15.08 3.14-1.23 0.38-2.07 0.38-2.07 0.38h-1.11s-0.84 0-2.07-0.38-7.83-2.54-15.08-3.14c-4.13-0.34-17.38 0-18.22 1.23s-1.45 4.67-1.15 6.05c0.31 1.38 3.93 3.36 3.93 3.36s-0.45-2.71-0.37-4.62 0.57-3.33 1.57-3.94 5.05-1 11.79-0.84c6.74 0.15 12.86 1.61 14.55 2.37 1.68 0.77 2.07 2.45 1.23 5.9s-3.14 6.74-3.14 6.74 1.53-0.15 1.99-0.54c0.46-0.38 0.61-0.61 2.45-4.36s2.53-3.6 2.53-3.6h1.11s0.69-0.15 2.53 3.6 1.99 3.98 2.45 4.36 1.99 0.54 1.99 0.54-2.3-3.29-3.14-6.74-0.46-5.13 1.23-5.9c1.68-0.77 7.81-2.22 14.55-2.37s10.8 0.23 11.79 0.84c1 0.61 1.49 2.03 1.57 3.94s-0.37 4.62-0.37 4.62 3.63-1.98 3.93-3.36c0.29-1.38-0.33-4.82-1.17-6.05z" fill="#26120b"/> <path d="m135.92 89.66c-0.31-0.31-0.78-0.39-1.19-0.5-0.43-0.09-0.86-0.17-1.3-0.23-0.87-0.12-1.75-0.21-2.62-0.28a102.7 102.7 0 0 0-5.27-0.27c-3.52-0.07-7.05-0.13-10.54 0.39-3.49 0.48-6.93 1.26-10.3 2.24l-2.53 0.77c-0.43 0.11-0.87 0.19-1.31 0.24-0.45 0.03-0.88 0.01-1.33 0.02-0.9-0.01-1.77-0.24-2.61-0.52a73.3 73.3 0 0 0-2.53-0.74c-3.39-0.93-6.84-1.67-10.33-2.08-1.75-0.22-3.5-0.31-5.26-0.31-1.76-0.02-3.52 0.01-5.28 0.07s-3.52 0.16-5.27 0.32c-0.87 0.09-1.75 0.19-2.61 0.35-0.43 0.08-0.86 0.18-1.25 0.36-0.2 0.08-0.31 0.24-0.42 0.44-0.1 0.19-0.19 0.39-0.27 0.59-0.31 0.82-0.51 1.68-0.65 2.54-0.12 0.86-0.23 1.75-0.08 2.61 0.1 0.41 0.4 0.76 0.7 1.07 0.31 0.31 0.65 0.59 1 0.85 0.7 0.52 1.45 1 2.21 1.43l-0.06 0.04c-0.16-1.03-0.28-2.06-0.34-3.1s-0.06-2.09 0.15-3.11c0.21-0.99 0.65-2.09 1.67-2.53 0.99-0.36 2.04-0.45 3.07-0.55 2.07-0.18 4.15-0.22 6.22-0.21s4.15 0.06 6.22 0.26c2.07 0.19 4.13 0.49 6.16 0.9 1.02 0.21 2.03 0.44 3.03 0.73 0.5 0.15 1 0.3 1.48 0.52 0.48 0.23 0.92 0.57 1.2 1.04 0.55 0.95 0.5 2.07 0.39 3.09-0.14 1.04-0.38 2.05-0.7 3.05-0.67 1.98-1.64 3.84-2.8 5.57l-0.1-0.16c0.92-0.14 2-0.2 2.44-1.1 0.49-0.82 0.9-1.7 1.34-2.56 0.43-0.86 0.84-1.74 1.31-2.59 0.23-0.42 0.49-0.84 0.77-1.24 0.14-0.2 0.29-0.39 0.46-0.58 0.19-0.17 0.3-0.38 0.69-0.43h-0.02 1.11-0.02c0.38 0.05 0.49 0.27 0.69 0.43 0.17 0.18 0.32 0.38 0.46 0.58 0.28 0.4 0.54 0.81 0.77 1.24 0.48 0.85 0.89 1.72 1.32 2.59 0.43 0.86 0.85 1.74 1.34 2.56 0.44 0.9 1.51 0.96 2.44 1.1l-0.1 0.17c-1.15-1.74-2.13-3.59-2.81-5.57-0.33-0.99-0.57-2.01-0.71-3.05-0.12-1.02-0.17-2.15 0.38-3.11 0.28-0.47 0.73-0.82 1.21-1.05 0.48-0.22 0.98-0.37 1.48-0.53 1-0.29 2.01-0.53 3.03-0.74 2.04-0.41 4.1-0.7 6.17-0.89 2.07-0.2 4.15-0.24 6.22-0.25 2.08 0 4.15 0.04 6.22 0.22 1.03 0.11 2.08 0.2 3.07 0.56 1.02 0.44 1.46 1.55 1.67 2.54 0.4 2.06 0.09 4.16-0.2 6.21l-0.05-0.04c0.83-0.47 1.65-0.98 2.41-1.57 0.38-0.29 0.74-0.61 1.06-0.97 0.33-0.35 0.52-0.8 0.53-1.29 0.05-0.95-0.07-1.92-0.25-2.85-0.24-0.93-0.47-1.88-0.98-2.69zm0.02-0.02c0.51 0.82 0.75 1.77 0.96 2.7 0.19 0.94 0.32 1.9 0.27 2.86 0 0.49-0.2 0.96-0.54 1.32-0.32 0.37-0.68 0.68-1.06 0.98-0.76 0.59-1.57 1.11-2.41 1.58l-0.06 0.04 0.01-0.07c0.28-2.04 0.58-4.14 0.18-6.17-0.21-0.98-0.66-2.05-1.62-2.46-0.96-0.34-2.01-0.43-3.04-0.53-2.06-0.17-4.14-0.2-6.21-0.19-2.07 0.02-4.15 0.07-6.21 0.28-2.06 0.2-4.11 0.5-6.14 0.92-1.01 0.21-2.02 0.45-3.01 0.74-0.97 0.3-2.04 0.59-2.56 1.48-0.51 0.87-0.47 1.95-0.35 2.96 0.14 1.02 0.37 2.03 0.7 3.01 0.67 1.95 1.64 3.8 2.77 5.52l0.13 0.2-0.24-0.03c-0.49-0.06-0.97-0.13-1.44-0.28-0.49-0.11-0.92-0.51-1.16-0.93-0.5-0.84-0.91-1.71-1.35-2.58-0.43-0.87-0.84-1.74-1.31-2.58-0.23-0.42-0.48-0.83-0.76-1.22-0.14-0.2-0.28-0.38-0.44-0.56-0.14-0.16-0.38-0.35-0.48-0.37h-1.15c-0.1 0.02-0.34 0.21-0.48 0.37-0.16 0.17-0.31 0.36-0.44 0.56-0.27 0.39-0.53 0.8-0.76 1.22-0.47 0.84-0.88 1.71-1.31 2.58-0.44 0.86-0.84 1.74-1.35 2.58-0.24 0.42-0.66 0.82-1.16 0.93-0.47 0.14-0.95 0.22-1.44 0.27l-0.22 0.03 0.13-0.19c1.14-1.72 2.11-3.57 2.78-5.52 0.32-0.98 0.56-1.99 0.7-3.01 0.12-1.01 0.16-2.09-0.35-2.98-0.52-0.9-1.6-1.19-2.57-1.49-0.99-0.29-2-0.53-3.01-0.74a57.69 57.69 0 0 0-6.15-0.91c-2.06-0.21-4.14-0.26-6.21-0.28-2.07-0.01-4.15 0.02-6.21 0.19-1.03 0.1-2.07 0.19-3.04 0.54-0.97 0.41-1.42 1.48-1.62 2.47-0.4 2.04-0.1 4.14 0.19 6.18l0.01 0.08-0.07-0.04c-0.77-0.43-1.52-0.9-2.23-1.43-0.35-0.27-0.69-0.55-1.01-0.86-0.31-0.31-0.62-0.66-0.73-1.11-0.16-0.88-0.05-1.77 0.07-2.65 0.14-0.87 0.34-1.74 0.65-2.57 0.08-0.21 0.17-0.41 0.28-0.61 0.06-0.09 0.11-0.19 0.18-0.29 0.08-0.1 0.19-0.15 0.29-0.21 0.41-0.19 0.85-0.28 1.28-0.37 0.87-0.17 1.74-0.27 2.62-0.36 1.75-0.17 3.51-0.27 5.27-0.34s3.52-0.1 5.28-0.09c1.76 0 3.53 0.08 5.28 0.3 3.5 0.41 6.97 1.12 10.36 2.07 0.85 0.24 1.69 0.49 2.53 0.75 0.83 0.28 1.68 0.5 2.55 0.52 0.44-0.01 0.89 0.02 1.31-0.01 0.43-0.04 0.86-0.12 1.29-0.22l2.53-0.75c3.39-0.97 6.84-1.73 10.33-2.2 3.49-0.51 7.04-0.43 10.55-0.35 1.76 0.06 3.52 0.14 5.27 0.29 0.88 0.07 1.75 0.16 2.63 0.29 0.44 0.06 0.87 0.14 1.3 0.24 0.43 0.11 0.9 0.18 1.22 0.5z" fill="#070201"/> </g> </g> </g> </g> </svg>